  0
SECTION
  2
HEADER
  9
$ACADVER
  1
AC1009
  9
$DWGCODEPAGE
  3
undefined
  9
$INSBASE
 10
0.0
 20
0.0
 30
0.0
  9
$EXTMIN
 10
1.000000000000000E+20
 20
1.000000000000000E+20
 30
1.000000000000000E+20
  9
$EXTMAX
 10
-1.000000000000000E+20
 20
-1.000000000000000E+20
 30
-1.000000000000000E+20
  9
$LIMMIN
 10
0.0
 20
0.0
  9
$LIMMAX
 10
12.0
 20
9.0
  9
$ORTHOMODE
 70
     0
  9
$REGENMODE
 70
     1
  9
$FILLMODE
 70
     1
  9
$QTEXTMODE
 70
     0
  9
$MIRRTEXT
 70
     1
  9
$DRAGMODE
 70
     2
  9
$LTSCALE
 40
1.0
  9
$OSMODE
 70
    37
  9
$ATTMODE
 70
     1
  9
$TEXTSIZE
 40
0.2
  9
$TRACEWID
 40
0.05
  9
$TEXTSTYLE
  7
STANDARD
  9
$CLAYER
  8
0
  9
$CELTYPE
  6
BYLAYER
  9
$CECOLOR
 62
   256
  9
$DIMSCALE
 40
1.0
  9
$DIMASZ
 40
0.18
  9
$DIMEXO
 40
0.0625
  9
$DIMDLI
 40
0.38
  9
$DIMRND
 40
0.0
  9
$DIMDLE
 40
0.0
  9
$DIMEXE
 40
0.18
  9
$DIMTP
 40
0.0
  9
$DIMTM
 40
0.0
  9
$DIMTXT
 40
0.18
  9
$DIMCEN
 40
0.09
  9
$DIMTSZ
 40
0.0
  9
$DIMTOL
 70
     0
  9
$DIMLIM
 70
     0
  9
$DIMTIH
 70
     1
  9
$DIMTOH
 70
     1
  9
$DIMSE1
 70
     0
  9
$DIMSE2
 70
     0
  9
$DIMTAD
 70
     0
  9
$DIMZIN
 70
     0
  9
$DIMBLK
  1

  9
$DIMASO
 70
     1
  9
$DIMSHO
 70
     1
  9
$DIMPOST
  1

  9
$DIMAPOST
  1

  9
$DIMALT
 70
     0
  9
$DIMALTD
 70
     2
  9
$DIMALTF
 40
25.4
  9
$DIMLFAC
 40
1.0
  9
$DIMTOFL
 70
     0
  9
$DIMTVP
 40
0.0
  9
$DIMTIX
 70
     0
  9
$DIMSOXD
 70
     0
  9
$DIMSAH
 70
     0
  9
$DIMBLK1
  1

  9
$DIMBLK2
  1

  9
$DIMSTYLE
  2
STANDARD
  9
$DIMCLRD
 70
     0
  9
$DIMCLRE
 70
     0
  9
$DIMCLRT
 70
     0
  9
$DIMTFAC
 40
1.0
  9
$DIMGAP
 40
0.09
  9
$LUNITS
 70
     2
  9
$LUPREC
 70
     4
  9
$SKETCHINC
 40
0.1
  9
$FILLETRAD
 40
0.5
  9
$AUNITS
 70
     0
  9
$AUPREC
 70
     0
  9
$MENU
  1
.
  9
$ELEVATION
 40
0.0
  9
$PELEVATION
 40
0.0
  9
$THICKNESS
 40
0.0
  9
$LIMCHECK
 70
     0
  9
$CHAMFERA
 40
0.0
  9
$CHAMFERB
 40
0.0
  9
$SKPOLY
 70
     0
  9
$TDCREATE
 40
2457541.996296296
  9
$TDUPDATE
 40
2457541.996296296
  9
$TDINDWG
 40
0.0000000116
  9
$TDUSRTIMER
 40
0.0000000116
  9
$USRTIMER
 70
     1
  9
$ANGBASE
 50
0.0
  9
$ANGDIR
 70
     0
  9
$PDMODE
 70
     0
  9
$PDSIZE
 40
0.0
  9
$PLINEWID
 40
0.0
  9
$COORDS
 70
     1
  9
$SPLFRAME
 70
     0
  9
$SPLINETYPE
 70
     6
  9
$SPLINESEGS
 70
     8
  9
$ATTDIA
 70
     0
  9
$ATTREQ
 70
     1
  9
$HANDLING
 70
     1
  9
$HANDSEED
  5
1000032A
  9
$SURFTAB1
 70
     6
  9
$SURFTAB2
 70
     6
  9
$SURFTYPE
 70
     6
  9
$SURFU
 70
     6
  9
$SURFV
 70
     6
  9
$UCSNAME
  2

  9
$UCSORG
 10
0.0
 20
0.0
 30
0.0
  9
$UCSXDIR
 10
1.0
 20
0.0
 30
0.0
  9
$UCSYDIR
 10
0.0
 20
1.0
 30
0.0
  9
$PUCSNAME
  2

  9
$PUCSORG
 10
0.0
 20
0.0
 30
0.0
  9
$PUCSXDIR
 10
1.0
 20
0.0
 30
0.0
  9
$PUCSYDIR
 10
0.0
 20
1.0
 30
0.0
  9
$USERI1
 70
     0
  9
$USERI2
 70
     0
  9
$USERI3
 70
     0
  9
$USERI4
 70
     0
  9
$USERI5
 70
     0
  9
$USERR1
 40
0.0
  9
$USERR2
 40
0.0
  9
$USERR3
 40
0.0
  9
$USERR4
 40
0.0
  9
$USERR5
 40
0.0
  9
$WORLDVIEW
 70
     1
  9
$SHADEDGE
 70
     3
  9
$SHADEDIF
 70
    70
  9
$TILEMODE
 70
     1
  9
$MAXACTVP
 70
    64
  9
$PLIMCHECK
 70
     0
  9
$PEXTMIN
 10
1.000000000000000E+20
 20
1.000000000000000E+20
 30
1.000000000000000E+20
  9
$PEXTMAX
 10
-1.000000000000000E+20
 20
-1.000000000000000E+20
 30
-1.000000000000000E+20
  9
$PLIMMIN
 10
0.0
 20
0.0
  9
$PLIMMAX
 10
12.0
 20
9.0
  9
$UNITMODE
 70
     0
  9
$VISRETAIN
 70
     1
  9
$PLINEGEN
 70
     0
  9
$PSLTSCALE
 70
     1
  0
ENDSEC
  0
SECTION
  2
TABLES
  0
TABLE
  2
VPORT
 70
     1
  0
VPORT
  2
*ACTIVE
 70
     0
 10
0.0
 20
0.0
 11
1.0
 21
1.0
 12
10.42990654205607
 22
4.5
 13
0.0
 23
0.0
 14
0.5
 24
0.5
 15
0.5
 25
0.5
 16
0.0
 26
0.0
 36
1.0
 17
0.0
 27
0.0
 37
0.0
 40
9.0
 41
1.972972972850329
 42
50.0
 43
0.0
 44
0.0
 50
0.0
 51
0.0
 71
     0
 72
   100
 73
     1
 74
     3
 75
     0
 76
     0
 77
     0
 78
     0
  0
ENDTAB
  0
TABLE
  2
LTYPE
 70
     6
  0
LTYPE
  2
CONTINUOUS
 70
     0
  3
Solid line
 72
    65
 73
     0
 40
0.0
  0
LTYPE
  2
HIDDEN
 70
     0
  3
Hidden line ____ ____ ____ ____ 
 72
    83
 73
     2
 40
0.125
 49
0.25
 49
-0.125
  0
LTYPE
  2
ONS_PHANTOM
 70
     0
  3
Onshape Phantom line ______ __ __ ______
 72
    83
 73
     6
 40
0.8250000000000002
 49
0.75
 49
-0.075
 49
0.15
 49
-0.075
 49
0.15
 49
-0.075
  0
LTYPE
  2
CENTER
 70
     0
  3
Center line ____ _ ____ _ ____ _
 72
    83
 73
     4
 40
0.36
 49
0.45
 49
-0.09
 49
0.09
 49
-0.09
  0
LTYPE
  2
DASHED
 70
     0
  3
Dashed line __ __ __ __ __
 72
    83
 73
     2
 40
0.25
 49
0.5
 49
-0.25
  0
LTYPE
  2
ONS_DASHDOT
 70
     0
  3
Onshape Dashed with Dot _ . ____ . ____
 72
    83
 73
     4
 40
0.3100000000000001
 49
0.5
 49
-0.1
 49
0.01
 49
-0.1
  0
ENDTAB
  0
TABLE
  2
LAYER
 70
    14
  0
LAYER
  2
0
 70
     0
 62
     7
  6
CONTINUOUS
  0
LAYER
  2
HIDDEN
 70
     0
 62
    -7
  6
HIDDEN
  0
LAYER
  2
VISIBLE
 70
     0
 62
     7
  6
CONTINUOUS
  0
LAYER
  2
TANGENT_LINES
 70
     0
 62
     7
  6
CONTINUOUS
  0
LAYER
  2
TANGENT_HIDDEN
 70
     0
 62
    -7
  6
HIDDEN
  0
LAYER
  2
INVISIBLE_LINES
 70
     0
 62
    -7
  6
CONTINUOUS
  0
LAYER
  2
VIEW_HATCHES
 70
     0
 62
     7
  6
CONTINUOUS
  0
LAYER
  2
SECTION_CUTTING_LINE
 70
     0
 62
     7
  6
ONS_PHANTOM
  0
LAYER
  2
DETAIL_VIEW_BORDER
 70
     0
 62
     7
  6
CONTINUOUS
  0
LAYER
  2
DETAIL_VIEW_PARENT_BORDER
 70
     0
 62
     7
  6
ONS_PHANTOM
  0
LAYER
  2
TEXT
 70
     0
 62
     7
  6
CONTINUOUS
  0
LAYER
  2
SKETCHED_GEOMETRY
 70
     0
 62
     7
  6
CONTINUOUS
  0
LAYER
  2
CENTERLINES
 70
     0
 62
     7
  6
CENTER
  0
LAYER
  2
CENTERMARKS
 70
     0
 62
     7
  6
CONTINUOUS
  0
ENDTAB
  0
TABLE
  2
STYLE
 70
     2
  0
STYLE
  2
STANDARD
 70
     0
 40
0.0
 41
1.0
 50
0.0
 71
     0
 42
0.2
  3
txt
  4

  0
STYLE
  2
TTFSTYLE
 70
     0
 40
0.0
 41
1.0
 50
0.0
 71
     0
 42
0.2
  3
Verdana.ttf
  4

  0
ENDTAB
  0
TABLE
  2
VIEW
 70
     0
  0
ENDTAB
  0
TABLE
  2
UCS
 70
     0
  0
ENDTAB
  0
TABLE
  2
APPID
 70
     1
  0
APPID
  2
ACAD
 70
     0
  0
ENDTAB
  0
TABLE
  2
DIMSTYLE
 70
     1
  0
DIMSTYLE
  2
STANDARD
 70
     0
  3

  4

  5

  6

  7

 40
1.0
 41
0.18
 42
0.0625
 43
0.38
 44
0.18
 45
0.0
 46
0.0
 47
0.0
 48
0.0
140
0.18
141
0.09
142
0.0
143
25.4
144
1.0
145
0.0
146
1.0
147
0.09
 71
     0
 72
     0
 73
     1
 74
     1
 75
     0
 76
     0
 77
     0
 78
     0
170
     0
171
     2
172
     0
173
     0
174
     0
175
     0
176
     0
177
     0
178
     0
  0
ENDTAB
  0
ENDSEC
  0
SECTION
  2
BLOCKS
  0
BLOCK
  8
0
  2
$MODEL_SPACE
 70
     0
 10
0.0
 20
0.0
 30
0.0
  3
$MODEL_SPACE
  1

  0
ENDBLK
  5
21
  8
0
  0
BLOCK
 67
     1
  8
0
  2
$PAPER_SPACE
 70
     0
 10
0.0
 20
0.0
 30
0.0
  3
$PAPER_SPACE
  1

  0
ENDBLK
  5
1D
 67
     1
  8
0
  0
ENDSEC
  0
SECTION
  2
ENTITIES
  0
POLYLINE
  5
F43F1
  8
VISIBLE
 10
0.0
 20
0.0
 30
0.0
 66
     1
 70
     8
  0
VERTEX
  5
10000035
  8
VISIBLE
 10
2.994685272812166
 20
-1.500000000000002
 30
0.0
 70
    32
  0
VERTEX
  5
10000036
  8
VISIBLE
 10
3.016508005858494
 20
-1.112328306992481
 30
0.0
 70
    32
  0
VERTEX
  5
10000037
  8
VISIBLE
 10
3.009776257466331
 20
-0.7268250312104191
 30
0.0
 70
    32
  0
VERTEX
  5
10000038
  8
VISIBLE
 10
2.987483376047984
 20
-0.536089690282867
 30
0.0
 70
    32
  0
VERTEX
  5
10000039
  8
VISIBLE
 10
2.951060864428119
 20
-0.3585101858201857
 30
0.0
 70
    32
  0
VERTEX
  5
1000003A
  8
VISIBLE
 10
2.929079725268394
 20
-0.2847460668857648
 30
0.0
 70
    32
  0
VERTEX
  5
1000003B
  8
VISIBLE
 10
2.905522689300379
 20
-0.2268561947508125
 30
0.0
 70
    32
  0
VERTEX
  5
1000003C
  8
VISIBLE
 10
2.881092775592756
 20
-0.1892334378664704
 30
0.0
 70
    32
  0
VERTEX
  5
1000003D
  8
VISIBLE
 10
2.856493003214126
 20
-0.1762706646802912
 30
0.0
 70
    32
  0
VERTEX
  5
1000003E
  8
VISIBLE
 10
2.832394269848302
 20
-0.1908818876310125
 30
0.0
 70
    32
  0
VERTEX
  5
1000003F
  8
VISIBLE
 10
2.809339505290195
 20
-0.2300895275378409
 30
0.0
 70
    32
  0
VERTEX
  5
10000040
  8
VISIBLE
 10
2.787839776254095
 20
-0.2894490414342643
 30
0.0
 70
    32
  0
VERTEX
  5
10000041
  8
VISIBLE
 10
2.768406149454294
 20
-0.3645158863537704
 30
0.0
 70
    32
  0
VERTEX
  5
10000042
  8
VISIBLE
 10
2.737781469420755
 20
-0.5439933973959822
 30
0.0
 70
    32
  0
VERTEX
  5
10000043
  8
VISIBLE
 10
2.721053580802566
 20
-0.7350424801775286
 30
0.0
 70
    32
  0
VERTEX
  5
10000044
  8
VISIBLE
 10
2.71997984984916
 20
-1.116130649021715
 30
0.0
 70
    32
  0
VERTEX
  5
10000045
  8
VISIBLE
 10
2.731226573258585
 20
-1.500000000000002
 30
0.0
 70
    32
  0
SEQEND
  5
10000048
  8
VISIBLE
  0
LINE
  5
F43F2
  8
VISIBLE
 10
0.3894103366348558
 20
-1.5
 30
0.0
 11
-0.1105896633651441
 21
-1.5
 31
0.0
  0
LINE
  5
F43F3
  8
VISIBLE
 10
1.442047804723512
 20
1.5
 30
0.0
 11
1.942047804723514
 21
1.499999999999999
 31
0.0
  0
POLYLINE
  5
F43F4
  8
VISIBLE
 10
0.0
 20
0.0
 30
0.0
 66
     1
 70
     8
  0
VERTEX
  5
10000053
  8
VISIBLE
 10
0.9157290706791844
 20
1.21583194127233
 30
0.0
 70
    32
  0
VERTEX
  5
10000054
  8
VISIBLE
 10
0.9049133579635255
 20
1.211030042333672
 30
0.0
 70
    32
  0
VERTEX
  5
10000055
  8
VISIBLE
 10
0.8964957950870902
 20
1.200847977794075
 30
0.0
 70
    32
  0
VERTEX
  5
10000056
  8
VISIBLE
 10
0.8776920313811988
 20
1.159077619769675
 30
0.0
 70
    32
  0
VERTEX
  5
10000057
  8
VISIBLE
 10
0.8594503127104219
 20
1.095408529555054
 30
0.0
 70
    32
  0
VERTEX
  5
10000058
  8
VISIBLE
 10
0.8419031722236704
 20
1.014728369506129
 30
0.0
 70
    32
  0
VERTEX
  5
10000059
  8
VISIBLE
 10
0.8094227583978904
 20
0.8218854893290577
 30
0.0
 70
    32
  0
VERTEX
  5
1000005A
  8
VISIBLE
 10
0.7813110550951504
 20
0.6196502780858284
 30
0.0
 70
    32
  0
VERTEX
  5
1000005B
  8
VISIBLE
 10
0.7521636957869723
 20
0.3848645745407858
 30
0.0
 70
    32
  0
VERTEX
  5
1000005C
  8
VISIBLE
 10
0.7334044906610254
 20
0.1859213885505559
 30
0.0
 70
    32
  0
VERTEX
  5
1000005D
  8
VISIBLE
 10
0.7257619887780411
 20
0.0053477768179257
 30
0.0
 70
    32
  0
VERTEX
  5
1000005E
  8
VISIBLE
 10
0.7299167127673348
 20
-0.1743361739563896
 30
0.0
 70
    32
  0
VERTEX
  5
1000005F
  8
VISIBLE
 10
0.7463388653054452
 20
-0.370640893003403
 30
0.0
 70
    32
  0
VERTEX
  5
10000060
  8
VISIBLE
 10
0.7754410918811001
 20
-0.6010851606933814
 30
0.0
 70
    32
  0
VERTEX
  5
10000061
  8
VISIBLE
 10
0.8054511843040575
 20
-0.800065026980268
 30
0.0
 70
    32
  0
VERTEX
  5
10000062
  8
VISIBLE
 10
0.8404665559559948
 20
-0.990900844405526
 30
0.0
 70
    32
  0
VERTEX
  5
10000063
  8
VISIBLE
 10
0.8590777293956531
 20
-1.071002200621607
 30
0.0
 70
    32
  0
VERTEX
  5
10000064
  8
VISIBLE
 10
0.878012024735753
 20
-1.134352373535965
 30
0.0
 70
    32
  0
VERTEX
  5
10000065
  8
VISIBLE
 10
0.8969600395947805
 20
-1.176046251920577
 30
0.0
 70
    32
  0
VERTEX
  5
10000066
  8
VISIBLE
 10
0.9074615951956277
 20
-1.188107042826682
 30
0.0
 70
    32
  0
VERTEX
  5
10000067
  8
VISIBLE
 10
0.915612371591222
 20
-1.191178724547427
 30
0.0
 70
    32
  0
VERTEX
  5
10000068
  8
VISIBLE
 10
0.9247364694328076
 20
-1.18744855579883
 30
0.0
 70
    32
  0
VERTEX
  5
10000069
  8
VISIBLE
 10
0.9337044812426144
 20
-1.176450998606901
 30
0.0
 70
    32
  0
VERTEX
  5
1000006A
  8
VISIBLE
 10
0.9511547279712981
 20
-1.135112986025616
 30
0.0
 70
    32
  0
VERTEX
  5
1000006B
  8
VISIBLE
 10
0.9679280742444244
 20
-1.072083223157441
 30
0.0
 70
    32
  0
VERTEX
  5
1000006C
  8
VISIBLE
 10
0.9839894825408119
 20
-0.9922802467739894
 30
0.0
 70
    32
  0
VERTEX
  5
1000006D
  8
VISIBLE
 10
1.013836335118643
 20
-0.8020288005477041
 30
0.0
 70
    32
  0
VERTEX
  5
1000006E
  8
VISIBLE
 10
1.040414932174807
 20
-0.6037028472359353
 30
0.0
 70
    32
  0
VERTEX
  5
1000006F
  8
VISIBLE
 10
1.070001458745841
 20
-0.3729892371733177
 30
0.0
 70
    32
  0
VERTEX
  5
10000070
  8
VISIBLE
 10
1.091104121908646
 20
-0.175213762981406
 30
0.0
 70
    32
  0
VERTEX
  5
10000071
  8
VISIBLE
 10
1.101634121473644
 20
0.0056454721067415
 30
0.0
 70
    32
  0
VERTEX
  5
10000072
  8
VISIBLE
 10
1.099825925276965
 20
0.1860796599162069
 30
0.0
 70
    32
  0
VERTEX
  5
10000073
  8
VISIBLE
 10
1.085089687121183
 20
0.3842867605575282
 30
0.0
 70
    32
  0
VERTEX
  5
10000074
  8
VISIBLE
 10
1.057102763647902
 20
0.6188524736095347
 30
0.0
 70
    32
  0
VERTEX
  5
10000075
  8
VISIBLE
 10
1.027642617992764
 20
0.8213470290199711
 30
0.0
 70
    32
  0
VERTEX
  5
10000076
  8
VISIBLE
 10
0.9928002587061145
 20
1.014397916465849
 30
0.0
 70
    32
  0
VERTEX
  5
10000077
  8
VISIBLE
 10
0.9740451373447936
 20
1.095168176405861
 30
0.0
 70
    32
  0
VERTEX
  5
10000078
  8
VISIBLE
 10
0.9547657286481795
 20
1.158920949399269
 30
0.0
 70
    32
  0
VERTEX
  5
10000079
  8
VISIBLE
 10
0.9352357879738002
 20
1.200770712127588
 30
0.0
 70
    32
  0
VERTEX
  5
1000007A
  8
VISIBLE
 10
0.9242916273052036
 20
1.212818333952016
 30
0.0
 70
    32
  0
VERTEX
  5
1000007B
  8
VISIBLE
 10
0.9157290706791844
 20
1.21583194127233
 30
0.0
 70
    32
  0
SEQEND
  5
1000007E
  8
VISIBLE
  0
POLYLINE
  5
F43F5
  8
VISIBLE
 10
0.0
 20
0.0
 30
0.0
 66
     1
 70
     8
  0
VERTEX
  5
1000007F
  8
VISIBLE
 10
-0.1105896633651441
 20
-1.5
 30
0.0
 70
    32
  0
VERTEX
  5
10000080
  8
VISIBLE
 10
-0.088766930318817
 20
-1.112328306992478
 30
0.0
 70
    32
  0
VERTEX
  5
10000081
  8
VISIBLE
 10
-0.0954986787109794
 20
-0.7268250312104169
 30
0.0
 70
    32
  0
VERTEX
  5
10000082
  8
VISIBLE
 10
-0.1177915601293259
 20
-0.5360896902828648
 30
0.0
 70
    32
  0
VERTEX
  5
10000083
  8
VISIBLE
 10
-0.1542140717491919
 20
-0.3585101858201837
 30
0.0
 70
    32
  0
VERTEX
  5
10000084
  8
VISIBLE
 10
-0.176195210908918
 20
-0.2847460668857629
 30
0.0
 70
    32
  0
VERTEX
  5
10000085
  8
VISIBLE
 10
-0.1997522468769327
 20
-0.2268561947508106
 30
0.0
 70
    32
  0
VERTEX
  5
10000086
  8
VISIBLE
 10
-0.224182160584556
 20
-0.1892334378664687
 30
0.0
 70
    32
  0
VERTEX
  5
10000087
  8
VISIBLE
 10
-0.2487819329631856
 20
-0.1762706646802895
 30
0.0
 70
    32
  0
VERTEX
  5
10000088
  8
VISIBLE
 10
-0.2728806663290096
 20
-0.1908818876310108
 30
0.0
 70
    32
  0
VERTEX
  5
10000089
  8
VISIBLE
 10
-0.2959354308871169
 20
-0.2300895275378393
 30
0.0
 70
    32
  0
VERTEX
  5
1000008A
  8
VISIBLE
 10
-0.3174351599232164
 20
-0.2894490414342626
 30
0.0
 70
    32
  0
VERTEX
  5
1000008B
  8
VISIBLE
 10
-0.3368687867230168
 20
-0.3645158863537686
 30
0.0
 70
    32
  0
VERTEX
  5
1000008C
  8
VISIBLE
 10
-0.3674934667565563
 20
-0.5439933973959802
 30
0.0
 70
    32
  0
VERTEX
  5
1000008D
  8
VISIBLE
 10
-0.3842213553747444
 20
-0.7350424801775267
 30
0.0
 70
    32
  0
VERTEX
  5
1000008E
  8
VISIBLE
 10
-0.3852950863281506
 20
-1.116130649021713
 30
0.0
 70
    32
  0
VERTEX
  5
1000008F
  8
VISIBLE
 10
-0.3740483629187267
 20
-1.5
 30
0.0
 70
    32
  0
SEQEND
  5
10000092
  8
VISIBLE
  0
LINE
  5
F43F6
  8
VISIBLE
 10
-1.900507062472308
 20
0.1700987926078577
 30
0.0
 11
-1.900507062472308
 21
0.0720987926078583
 31
0.0
  0
LINE
  5
F43F7
  8
VISIBLE
 10
1.942047804723511
 20
-1.500000000000001
 30
0.0
 11
1.44204780472351
 21
-1.500000000000001
 31
0.0
  0
POLYLINE
  5
F43F8
  8
VISIBLE
 10
0.0
 20
0.0
 30
0.0
 66
     1
 70
     8
  0
VERTEX
  5
1000009D
  8
VISIBLE
 10
2.99468527281217
 20
1.499999999999998
 30
0.0
 70
    32
  0
VERTEX
  5
1000009E
  8
VISIBLE
 10
3.016508005858496
 20
1.112328306992476
 30
0.0
 70
    32
  0
VERTEX
  5
1000009F
  8
VISIBLE
 10
3.009776257466333
 20
0.7268250312104151
 30
0.0
 70
    32
  0
VERTEX
  5
100000A0
  8
VISIBLE
 10
2.987483376047986
 20
0.536089690282863
 30
0.0
 70
    32
  0
VERTEX
  5
100000A1
  8
VISIBLE
 10
2.95106086442812
 20
0.3585101858201821
 30
0.0
 70
    32
  0
VERTEX
  5
100000A2
  8
VISIBLE
 10
2.929079725268393
 20
0.2847460668857612
 30
0.0
 70
    32
  0
VERTEX
  5
100000A3
  8
VISIBLE
 10
2.905522689300379
 20
0.226856194750809
 30
0.0
 70
    32
  0
VERTEX
  5
100000A4
  8
VISIBLE
 10
2.881092775592755
 20
0.189233437866467
 30
0.0
 70
    32
  0
VERTEX
  5
100000A5
  8
VISIBLE
 10
2.856493003214126
 20
0.1762706646802877
 30
0.0
 70
    32
  0
VERTEX
  5
100000A6
  8
VISIBLE
 10
2.832394269848301
 20
0.190881887631009
 30
0.0
 70
    32
  0
VERTEX
  5
100000A7
  8
VISIBLE
 10
2.809339505290195
 20
0.2300895275378373
 30
0.0
 70
    32
  0
VERTEX
  5
100000A8
  8
VISIBLE
 10
2.787839776254095
 20
0.2894490414342606
 30
0.0
 70
    32
  0
VERTEX
  5
100000A9
  8
VISIBLE
 10
2.768406149454295
 20
0.3645158863537666
 30
0.0
 70
    32
  0
VERTEX
  5
100000AA
  8
VISIBLE
 10
2.737781469420755
 20
0.5439933973959781
 30
0.0
 70
    32
  0
VERTEX
  5
100000AB
  8
VISIBLE
 10
2.721053580802568
 20
0.7350424801775245
 30
0.0
 70
    32
  0
VERTEX
  5
100000AC
  8
VISIBLE
 10
2.719979849849163
 20
1.116130649021711
 30
0.0
 70
    32
  0
VERTEX
  5
100000AD
  8
VISIBLE
 10
2.731226573258587
 20
1.499999999999998
 30
0.0
 70
    32
  0
SEQEND
  5
100000B0
  8
VISIBLE
  0
POLYLINE
  5
F43F9
  8
VISIBLE
 10
0.0
 20
0.0
 30
0.0
 66
     1
 70
     8
  0
VERTEX
  5
100000B1
  8
VISIBLE
 10
3.244685272812169
 20
1.215831941272328
 30
0.0
 70
    32
  0
VERTEX
  5
100000B2
  8
VISIBLE
 10
3.255500985527828
 20
1.21103004233367
 30
0.0
 70
    32
  0
VERTEX
  5
100000B3
  8
VISIBLE
 10
3.263918548404264
 20
1.200847977794073
 30
0.0
 70
    32
  0
VERTEX
  5
100000B4
  8
VISIBLE
 10
3.282722312110155
 20
1.159077619769673
 30
0.0
 70
    32
  0
VERTEX
  5
100000B5
  8
VISIBLE
 10
3.300964030780932
 20
1.095408529555051
 30
0.0
 70
    32
  0
VERTEX
  5
100000B6
  8
VISIBLE
 10
3.318511171267683
 20
1.014728369506127
 30
0.0
 70
    32
  0
VERTEX
  5
100000B7
  8
VISIBLE
 10
3.350991585093463
 20
0.8218854893290553
 30
0.0
 70
    32
  0
VERTEX
  5
100000B8
  8
VISIBLE
 10
3.379103288396203
 20
0.619650278085826
 30
0.0
 70
    32
  0
VERTEX
  5
100000B9
  8
VISIBLE
 10
3.408250647704381
 20
0.3848645745407832
 30
0.0
 70
    32
  0
VERTEX
  5
100000BA
  8
VISIBLE
 10
3.427009852830327
 20
0.1859213885505536
 30
0.0
 70
    32
  0
VERTEX
  5
100000BB
  8
VISIBLE
 10
3.434652354713312
 20
0.0053477768179237
 30
0.0
 70
    32
  0
VERTEX
  5
100000BC
  8
VISIBLE
 10
3.430497630724018
 20
-0.1743361739563915
 30
0.0
 70
    32
  0
VERTEX
  5
100000BD
  8
VISIBLE
 10
3.414075478185907
 20
-0.3706408930034047
 30
0.0
 70
    32
  0
VERTEX
  5
100000BE
  8
VISIBLE
 10
3.384973251610252
 20
-0.601085160693383
 30
0.0
 70
    32
  0
VERTEX
  5
100000BF
  8
VISIBLE
 10
3.354963159187293
 20
-0.8000650269802696
 30
0.0
 70
    32
  0
VERTEX
  5
100000C0
  8
VISIBLE
 10
3.319947787535355
 20
-0.9909008444055274
 30
0.0
 70
    32
  0
VERTEX
  5
100000C1
  8
VISIBLE
 10
3.301336614095696
 20
-1.071002200621609
 30
0.0
 70
    32
  0
VERTEX
  5
100000C2
  8
VISIBLE
 10
3.282402318755596
 20
-1.134352373535966
 30
0.0
 70
    32
  0
VERTEX
  5
100000C3
  8
VISIBLE
 10
3.263454303896569
 20
-1.176046251920579
 30
0.0
 70
    32
  0
VERTEX
  5
100000C4
  8
VISIBLE
 10
3.252952748295722
 20
-1.188107042826683
 30
0.0
 70
    32
  0
VERTEX
  5
100000C5
  8
VISIBLE
 10
3.244801971900126
 20
-1.191178724547429
 30
0.0
 70
    32
  0
VERTEX
  5
100000C6
  8
VISIBLE
 10
3.235677874058542
 20
-1.187448555798832
 30
0.0
 70
    32
  0
VERTEX
  5
100000C7
  8
VISIBLE
 10
3.226709862248735
 20
-1.176450998606903
 30
0.0
 70
    32
  0
VERTEX
  5
100000C8
  8
VISIBLE
 10
3.209259615520051
 20
-1.135112986025618
 30
0.0
 70
    32
  0
VERTEX
  5
100000C9
  8
VISIBLE
 10
3.192486269246925
 20
-1.072083223157444
 30
0.0
 70
    32
  0
VERTEX
  5
100000CA
  8
VISIBLE
 10
3.176424860950538
 20
-0.9922802467739915
 30
0.0
 70
    32
  0
VERTEX
  5
100000CB
  8
VISIBLE
 10
3.146578008372707
 20
-0.8020288005477065
 30
0.0
 70
    32
  0
VERTEX
  5
100000CC
  8
VISIBLE
 10
3.119999411316544
 20
-0.6037028472359375
 30
0.0
 70
    32
  0
VERTEX
  5
100000CD
  8
VISIBLE
 10
3.090412884745511
 20
-0.3729892371733197
 30
0.0
 70
    32
  0
VERTEX
  5
100000CE
  8
VISIBLE
 10
3.069310221582707
 20
-0.1752137629814077
 30
0.0
 70
    32
  0
VERTEX
  5
100000CF
  8
VISIBLE
 10
3.058780222017709
 20
0.0056454721067398
 30
0.0
 70
    32
  0
VERTEX
  5
100000D0
  8
VISIBLE
 10
3.060588418214388
 20
0.1860796599162051
 30
0.0
 70
    32
  0
VERTEX
  5
100000D1
  8
VISIBLE
 10
3.07532465637017
 20
0.3842867605575263
 30
0.0
 70
    32
  0
VERTEX
  5
100000D2
  8
VISIBLE
 10
3.103311579843451
 20
0.6188524736095325
 30
0.0
 70
    32
  0
VERTEX
  5
100000D3
  8
VISIBLE
 10
3.13277172549859
 20
0.8213470290199691
 30
0.0
 70
    32
  0
VERTEX
  5
100000D4
  8
VISIBLE
 10
3.167614084785239
 20
1.014397916465848
 30
0.0
 70
    32
  0
VERTEX
  5
100000D5
  8
VISIBLE
 10
3.18636920614656
 20
1.095168176405859
 30
0.0
 70
    32
  0
VERTEX
  5
100000D6
  8
VISIBLE
 10
3.205648614843175
 20
1.158920949399267
 30
0.0
 70
    32
  0
VERTEX
  5
100000D7
  8
VISIBLE
 10
3.225178555517553
 20
1.200770712127586
 30
0.0
 70
    32
  0
VERTEX
  5
100000D8
  8
VISIBLE
 10
3.23612271618615
 20
1.212818333952014
 30
0.0
 70
    32
  0
VERTEX
  5
100000D9
  8
VISIBLE
 10
3.244685272812169
 20
1.215831941272328
 30
0.0
 70
    32
  0
SEQEND
  5
100000DC
  8
VISIBLE
  0
LINE
  5
F43FA
  8
VISIBLE
 10
-2.037507062472309
 20
0.0720987926078583
 30
0.0
 11
-2.112507062472309
 21
0.0720987926078583
 31
0.0
  0
LINE
  5
F43FB
  8
VISIBLE
 10
-0.8740483629187261
 20
-1.5
 30
0.0
 11
-0.3740483629187261
 21
-1.5
 31
0.0
  0
LINE
  5
F43FC
  8
VISIBLE
 10
2.99468527281217
 20
1.499999999999998
 30
0.0
 11
3.494685272812169
 21
1.499999999999997
 31
0.0
  0
LINE
  5
F43FD
  8
VISIBLE
 10
4.400004904101209
 20
-1.500000000000004
 30
0.0
 11
3.758143972365749
 21
-1.500000000000004
 31
0.0
  0
POLYLINE
  5
F43FE
  8
VISIBLE
 10
0.0
 20
0.0
 30
0.0
 66
     1
 70
     8
  0
VERTEX
  5
100000F1
  8
VISIBLE
 10
0.3894103366348558
 20
-1.5
 30
0.0
 70
    32
  0
VERTEX
  5
100000F2
  8
VISIBLE
 10
0.3675876035885289
 20
-1.112328306992478
 30
0.0
 70
    32
  0
VERTEX
  5
100000F3
  8
VISIBLE
 10
0.3743193519806914
 20
-0.726825031210417
 30
0.0
 70
    32
  0
VERTEX
  5
100000F4
  8
VISIBLE
 10
0.396612233399038
 20
-0.5360896902828649
 30
0.0
 70
    32
  0
VERTEX
  5
100000F5
  8
VISIBLE
 10
0.4330347450189042
 20
-0.3585101858201839
 30
0.0
 70
    32
  0
VERTEX
  5
100000F6
  8
VISIBLE
 10
0.4550158841786303
 20
-0.284746066885763
 30
0.0
 70
    32
  0
VERTEX
  5
100000F7
  8
VISIBLE
 10
0.478572920146645
 20
-0.2268561947508108
 30
0.0
 70
    32
  0
VERTEX
  5
100000F8
  8
VISIBLE
 10
0.5030028338542684
 20
-0.1892334378664688
 30
0.0
 70
    32
  0
VERTEX
  5
100000F9
  8
VISIBLE
 10
0.5276026062328979
 20
-0.1762706646802896
 30
0.0
 70
    32
  0
VERTEX
  5
100000FA
  8
VISIBLE
 10
0.5517013395987219
 20
-0.190881887631011
 30
0.0
 70
    32
  0
VERTEX
  5
100000FB
  8
VISIBLE
 10
0.5747561041568292
 20
-0.2300895275378394
 30
0.0
 70
    32
  0
VERTEX
  5
100000FC
  8
VISIBLE
 10
0.5962558331929285
 20
-0.2894490414342628
 30
0.0
 70
    32
  0
VERTEX
  5
100000FD
  8
VISIBLE
 10
0.615689459992729
 20
-0.3645158863537687
 30
0.0
 70
    32
  0
VERTEX
  5
100000FE
  8
VISIBLE
 10
0.6463141400262682
 20
-0.5439933973959805
 30
0.0
 70
    32
  0
VERTEX
  5
100000FF
  8
VISIBLE
 10
0.6630420286444565
 20
-0.7350424801775268
 30
0.0
 70
    32
  0
VERTEX
  5
10000100
  8
VISIBLE
 10
0.6641157595978626
 20
-1.116130649021713
 30
0.0
 70
    32
  0
VERTEX
  5
10000101
  8
VISIBLE
 10
0.6528690361884384
 20
-1.5
 30
0.0
 70
    32
  0
SEQEND
  5
10000104
  8
VISIBLE
  0
LINE
  5
F43FF
  8
VISIBLE
 10
-2.112507062472309
 20
0.2900987926078583
 30
0.0
 11
-2.112507062472309
 21
0.0720987926078583
 31
0.0
  0
LINE
  5
F4400
  8
VISIBLE
 10
3.494685272812167
 20
-1.500000000000003
 30
0.0
 11
2.994685272812166
 21
-1.500000000000002
 31
0.0
  0
LINE
  5
F4401
  8
VISIBLE
 10
-2.112507062472309
 20
0.2900987926078583
 30
0.0
 11
-2.237507062472309
 21
0.2900987926078583
 31
0.0
  0
POLYLINE
  5
F4402
  8
VISIBLE
 10
0.0
 20
0.0
 30
0.0
 66
     1
 70
     8
  0
VERTEX
  5
10000114
  8
VISIBLE
 10
-1.137507062472308
 20
1.5
 30
0.0
 70
    32
  0
VERTEX
  5
10000115
  8
VISIBLE
 10
-1.159329795518636
 20
1.112328306992478
 30
0.0
 70
    32
  0
VERTEX
  5
10000116
  8
VISIBLE
 10
-1.152598047126473
 20
0.7268250312104167
 30
0.0
 70
    32
  0
VERTEX
  5
10000117
  8
VISIBLE
 10
-1.130305165708126
 20
0.5360896902828647
 30
0.0
 70
    32
  0
VERTEX
  5
10000118
  8
VISIBLE
 10
-1.09388265408826
 20
0.3585101858201837
 30
0.0
 70
    32
  0
VERTEX
  5
10000119
  8
VISIBLE
 10
-1.071901514928534
 20
0.2847460668857628
 30
0.0
 70
    32
  0
VERTEX
  5
1000011A
  8
VISIBLE
 10
-1.048344478960519
 20
0.2268561947508106
 30
0.0
 70
    32
  0
VERTEX
  5
1000011B
  8
VISIBLE
 10
-1.023914565252896
 20
0.1892334378664686
 30
0.0
 70
    32
  0
VERTEX
  5
1000011C
  8
VISIBLE
 10
-0.9993147928742666
 20
0.1762706646802895
 30
0.0
 70
    32
  0
VERTEX
  5
1000011D
  8
VISIBLE
 10
-0.9752160595084426
 20
0.1908818876310108
 30
0.0
 70
    32
  0
VERTEX
  5
1000011E
  8
VISIBLE
 10
-0.9521612949503353
 20
0.2300895275378393
 30
0.0
 70
    32
  0
VERTEX
  5
1000011F
  8
VISIBLE
 10
-0.9306615659142359
 20
0.2894490414342626
 30
0.0
 70
    32
  0
VERTEX
  5
10000120
  8
VISIBLE
 10
-0.9112279391144352
 20
0.3645158863537686
 30
0.0
 70
    32
  0
VERTEX
  5
10000121
  8
VISIBLE
 10
-0.8806032590808958
 20
0.5439933973959802
 30
0.0
 70
    32
  0
VERTEX
  5
10000122
  8
VISIBLE
 10
-0.8638753704627077
 20
0.7350424801775267
 30
0.0
 70
    32
  0
VERTEX
  5
10000123
  8
VISIBLE
 10
-0.8628016395093016
 20
1.116130649021713
 30
0.0
 70
    32
  0
VERTEX
  5
10000124
  8
VISIBLE
 10
-0.8740483629187256
 20
1.5
 30
0.0
 70
    32
  0
SEQEND
  5
10000127
  8
VISIBLE
  0
LINE
  5
F4403
  8
VISIBLE
 10
-1.712507062472309
 20
0.0720987926078582
 30
0.0
 11
-1.712507062472309
 21
-0.0919012073921417
 31
0.0
  0
LINE
  5
F4404
  8
VISIBLE
 10
-2.037507062472309
 20
-0.0919012073921417
 30
0.0
 11
-2.112507062472309
 21
-0.0919012073921417
 31
0.0
  0
POLYLINE
  5
F4405
  8
VISIBLE
 10
0.0
 20
0.0
 30
0.0
 66
     1
 70
     8
  0
VERTEX
  5
10000132
  8
VISIBLE
 10
-1.137507062472308
 20
-1.5
 30
0.0
 70
    32
  0
VERTEX
  5
10000133
  8
VISIBLE
 10
-1.159329795518636
 20
-1.112328306992478
 30
0.0
 70
    32
  0
VERTEX
  5
10000134
  8
VISIBLE
 10
-1.152598047126473
 20
-0.7268250312104167
 30
0.0
 70
    32
  0
VERTEX
  5
10000135
  8
VISIBLE
 10
-1.130305165708126
 20
-0.5360896902828647
 30
0.0
 70
    32
  0
VERTEX
  5
10000136
  8
VISIBLE
 10
-1.09388265408826
 20
-0.3585101858201837
 30
0.0
 70
    32
  0
VERTEX
  5
10000137
  8
VISIBLE
 10
-1.071901514928534
 20
-0.2847460668857628
 30
0.0
 70
    32
  0
VERTEX
  5
10000138
  8
VISIBLE
 10
-1.048344478960519
 20
-0.2268561947508106
 30
0.0
 70
    32
  0
VERTEX
  5
10000139
  8
VISIBLE
 10
-1.023914565252896
 20
-0.1892334378664686
 30
0.0
 70
    32
  0
VERTEX
  5
1000013A
  8
VISIBLE
 10
-0.9993147928742665
 20
-0.1762706646802894
 30
0.0
 70
    32
  0
VERTEX
  5
1000013B
  8
VISIBLE
 10
-0.9752160595084426
 20
-0.1908818876310108
 30
0.0
 70
    32
  0
VERTEX
  5
1000013C
  8
VISIBLE
 10
-0.9521612949503353
 20
-0.2300895275378393
 30
0.0
 70
    32
  0
VERTEX
  5
1000013D
  8
VISIBLE
 10
-0.9306615659142359
 20
-0.2894490414342626
 30
0.0
 70
    32
  0
VERTEX
  5
1000013E
  8
VISIBLE
 10
-0.9112279391144352
 20
-0.3645158863537686
 30
0.0
 70
    32
  0
VERTEX
  5
1000013F
  8
VISIBLE
 10
-0.8806032590808958
 20
-0.5439933973959803
 30
0.0
 70
    32
  0
VERTEX
  5
10000140
  8
VISIBLE
 10
-0.8638753704627077
 20
-0.7350424801775268
 30
0.0
 70
    32
  0
VERTEX
  5
10000141
  8
VISIBLE
 10
-0.8628016395093016
 20
-1.116130649021713
 30
0.0
 70
    32
  0
VERTEX
  5
10000142
  8
VISIBLE
 10
-0.8740483629187256
 20
-1.5
 30
0.0
 70
    32
  0
SEQEND
  5
10000145
  8
VISIBLE
  0
LINE
  5
F4406
  8
VISIBLE
 10
-2.237507062472309
 20
0.2900987926078583
 30
0.0
 11
-2.237507062472309
 21
1.5
 31
0.0
  0
LINE
  5
F4407
  8
VISIBLE
 10
-0.1105896633651441
 20
1.5
 30
0.0
 11
0.3894103366348571
 21
1.5
 31
0.0
  0
LINE
  5
F4408
  8
VISIBLE
 10
-2.237507062472309
 20
-0.30990120739214
 30
0.0
 11
-2.237507062472309
 21
-1.5
 31
0.0
  0
LINE
  5
F4409
  8
VISIBLE
 10
-1.712507062472309
 20
-0.0919012073921417
 30
0.0
 11
-1.900507062472308
 21
-0.0919012073921417
 31
0.0
  0
LINE
  5
F440A
  8
VISIBLE
 10
-1.712507062472309
 20
0.0720987926078582
 30
0.0
 11
-1.900507062472308
 21
0.0720987926078583
 31
0.0
  0
LINE
  5
F440B
  8
VISIBLE
 10
-1.900507062472308
 20
-0.0919012073921417
 30
0.0
 11
-1.900507062472308
 21
-0.1899012073921406
 31
0.0
  0
LINE
  5
F440C
  8
VISIBLE
 10
-2.037507062472309
 20
-0.1899012073921406
 30
0.0
 11
-1.900507062472308
 21
-0.1899012073921406
 31
0.0
  0
LINE
  5
F440D
  8
VISIBLE
 10
-2.037507062472309
 20
-0.0919012073921417
 30
0.0
 11
-2.037507062472309
 21
-0.1899012073921406
 31
0.0
  0
LINE
  5
F440E
  8
VISIBLE
 10
-2.037507062472309
 20
0.1700987926078577
 30
0.0
 11
-1.900507062472308
 21
0.1700987926078577
 31
0.0
  0
LINE
  5
F440F
  8
VISIBLE
 10
-2.037507062472309
 20
0.1700987926078577
 30
0.0
 11
-2.037507062472309
 21
0.0720987926078583
 31
0.0
  0
LINE
  5
F4410
  8
VISIBLE
 10
-2.112507062472309
 20
-0.0919012073921417
 30
0.0
 11
-2.112507062472309
 21
-0.30990120739214
 31
0.0
  0
LINE
  5
F4411
  8
VISIBLE
 10
-2.112507062472309
 20
-0.30990120739214
 30
0.0
 11
-2.237507062472309
 21
-0.30990120739214
 31
0.0
  0
LINE
  5
F4412
  8
VISIBLE
 10
-2.237507062472309
 20
1.5
 30
0.0
 11
-1.137507062472309
 21
1.5
 31
0.0
  0
LINE
  5
F4413
  8
VISIBLE
 10
-2.237507062472309
 20
-1.5
 30
0.0
 11
-1.137507062472309
 21
-1.5
 31
0.0
  0
LINE
  5
F4414
  8
VISIBLE
 10
-0.8740483629187261
 20
1.5
 30
0.0
 11
-0.3740483629187261
 21
1.5
 31
0.0
  0
POLYLINE
  5
F4415
  8
VISIBLE
 10
0.0
 20
0.0
 30
0.0
 66
     1
 70
     8
  0
VERTEX
  5
10000191
  8
VISIBLE
 10
-0.6240483629187266
 20
1.21583194127233
 30
0.0
 70
    32
  0
VERTEX
  5
10000192
  8
VISIBLE
 10
-0.6348640756343854
 20
1.211030042333672
 30
0.0
 70
    32
  0
VERTEX
  5
10000193
  8
VISIBLE
 10
-0.6432816385108208
 20
1.200847977794075
 30
0.0
 70
    32
  0
VERTEX
  5
10000194
  8
VISIBLE
 10
-0.662085402216712
 20
1.159077619769676
 30
0.0
 70
    32
  0
VERTEX
  5
10000195
  8
VISIBLE
 10
-0.6803271208874889
 20
1.095408529555054
 30
0.0
 70
    32
  0
VERTEX
  5
10000196
  8
VISIBLE
 10
-0.6978742613742404
 20
1.014728369506129
 30
0.0
 70
    32
  0
VERTEX
  5
10000197
  8
VISIBLE
 10
-0.7303546752000202
 20
0.8218854893290578
 30
0.0
 70
    32
  0
VERTEX
  5
10000198
  8
VISIBLE
 10
-0.7584663785027601
 20
0.6196502780858284
 30
0.0
 70
    32
  0
VERTEX
  5
10000199
  8
VISIBLE
 10
-0.787613737810938
 20
0.3848645745407858
 30
0.0
 70
    32
  0
VERTEX
  5
1000019A
  8
VISIBLE
 10
-0.8063729429368846
 20
0.185921388550556
 30
0.0
 70
    32
  0
VERTEX
  5
1000019B
  8
VISIBLE
 10
-0.8140154448198685
 20
0.0053477768179258
 30
0.0
 70
    32
  0
VERTEX
  5
1000019C
  8
VISIBLE
 10
-0.8098607208305747
 20
-0.1743361739563895
 30
0.0
 70
    32
  0
VERTEX
  5
1000019D
  8
VISIBLE
 10
-0.7934385682924643
 20
-0.3706408930034027
 30
0.0
 70
    32
  0
VERTEX
  5
1000019E
  8
VISIBLE
 10
-0.7643363417168091
 20
-0.6010851606933809
 30
0.0
 70
    32
  0
VERTEX
  5
1000019F
  8
VISIBLE
 10
-0.7343262492938517
 20
-0.8000650269802676
 30
0.0
 70
    32
  0
VERTEX
  5
100001A0
  8
VISIBLE
 10
-0.6993108776419142
 20
-0.9909008444055257
 30
0.0
 70
    32
  0
VERTEX
  5
100001A1
  8
VISIBLE
 10
-0.680699704202256
 20
-1.071002200621607
 30
0.0
 70
    32
  0
VERTEX
  5
100001A2
  8
VISIBLE
 10
-0.6617654088621561
 20
-1.134352373535964
 30
0.0
 70
    32
  0
VERTEX
  5
100001A3
  8
VISIBLE
 10
-0.6428173940031285
 20
-1.176046251920577
 30
0.0
 70
    32
  0
VERTEX
  5
100001A4
  8
VISIBLE
 10
-0.6323158384022814
 20
-1.188107042826681
 30
0.0
 70
    32
  0
VERTEX
  5
100001A5
  8
VISIBLE
 10
-0.6241650620066871
 20
-1.191178724547427
 30
0.0
 70
    32
  0
VERTEX
  5
100001A6
  8
VISIBLE
 10
-0.6150409641651013
 20
-1.18744855579883
 30
0.0
 70
    32
  0
VERTEX
  5
100001A7
  8
VISIBLE
 10
-0.6060729523552948
 20
-1.1764509986069
 30
0.0
 70
    32
  0
VERTEX
  5
100001A8
  8
VISIBLE
 10
-0.5886227056266111
 20
-1.135112986025616
 30
0.0
 70
    32
  0
VERTEX
  5
100001A9
  8
VISIBLE
 10
-0.5718493593534847
 20
-1.072083223157441
 30
0.0
 70
    32
  0
VERTEX
  5
100001AA
  8
VISIBLE
 10
-0.5557879510570972
 20
-0.992280246773989
 30
0.0
 70
    32
  0
VERTEX
  5
100001AB
  8
VISIBLE
 10
-0.5259410984792655
 20
-0.8020288005477035
 30
0.0
 70
    32
  0
VERTEX
  5
100001AC
  8
VISIBLE
 10
-0.4993625014231023
 20
-0.6037028472359347
 30
0.0
 70
    32
  0
VERTEX
  5
100001AD
  8
VISIBLE
 10
-0.4697759748520681
 20
-0.3729892371733172
 30
0.0
 70
    32
  0
VERTEX
  5
100001AE
  8
VISIBLE
 10
-0.4486733116892633
 20
-0.1752137629814051
 30
0.0
 70
    32
  0
VERTEX
  5
100001AF
  8
VISIBLE
 10
-0.4381433121242658
 20
0.0056454721067424
 30
0.0
 70
    32
  0
VERTEX
  5
100001B0
  8
VISIBLE
 10
-0.439951508320945
 20
0.1860796599162079
 30
0.0
 70
    32
  0
VERTEX
  5
100001B1
  8
VISIBLE
 10
-0.4546877464767273
 20
0.3842867605575291
 30
0.0
 70
    32
  0
VERTEX
  5
100001B2
  8
VISIBLE
 10
-0.4826746699500088
 20
0.6188524736095354
 30
0.0
 70
    32
  0
VERTEX
  5
100001B3
  8
VISIBLE
 10
-0.5121348156051471
 20
0.821347029019972
 30
0.0
 70
    32
  0
VERTEX
  5
100001B4
  8
VISIBLE
 10
-0.5469771748917964
 20
1.01439791646585
 30
0.0
 70
    32
  0
VERTEX
  5
100001B5
  8
VISIBLE
 10
-0.5657322962531173
 20
1.095168176405861
 30
0.0
 70
    32
  0
VERTEX
  5
100001B6
  8
VISIBLE
 10
-0.5850117049497314
 20
1.15892094939927
 30
0.0
 70
    32
  0
VERTEX
  5
100001B7
  8
VISIBLE
 10
-0.6045416456241107
 20
1.200770712127589
 30
0.0
 70
    32
  0
VERTEX
  5
100001B8
  8
VISIBLE
 10
-0.6154858062927072
 20
1.212818333952016
 30
0.0
 70
    32
  0
VERTEX
  5
100001B9
  8
VISIBLE
 10
-0.6240483629187266
 20
1.21583194127233
 30
0.0
 70
    32
  0
SEQEND
  5
100001BC
  8
VISIBLE
  0
POLYLINE
  5
F4416
  8
VISIBLE
 10
0.0
 20
0.0
 30
0.0
 66
     1
 70
     8
  0
VERTEX
  5
100001BD
  8
VISIBLE
 10
-0.1105896633651441
 20
1.5
 30
0.0
 70
    32
  0
VERTEX
  5
100001BE
  8
VISIBLE
 10
-0.088766930318817
 20
1.112328306992478
 30
0.0
 70
    32
  0
VERTEX
  5
100001BF
  8
VISIBLE
 10
-0.0954986787109794
 20
0.7268250312104167
 30
0.0
 70
    32
  0
VERTEX
  5
100001C0
  8
VISIBLE
 10
-0.1177915601293259
 20
0.5360896902828647
 30
0.0
 70
    32
  0
VERTEX
  5
100001C1
  8
VISIBLE
 10
-0.1542140717491919
 20
0.3585101858201837
 30
0.0
 70
    32
  0
VERTEX
  5
100001C2
  8
VISIBLE
 10
-0.176195210908918
 20
0.2847460668857628
 30
0.0
 70
    32
  0
VERTEX
  5
100001C3
  8
VISIBLE
 10
-0.1997522468769327
 20
0.2268561947508106
 30
0.0
 70
    32
  0
VERTEX
  5
100001C4
  8
VISIBLE
 10
-0.2241821605845559
 20
0.1892334378664686
 30
0.0
 70
    32
  0
VERTEX
  5
100001C5
  8
VISIBLE
 10
-0.2487819329631856
 20
0.1762706646802894
 30
0.0
 70
    32
  0
VERTEX
  5
100001C6
  8
VISIBLE
 10
-0.2728806663290096
 20
0.1908818876310108
 30
0.0
 70
    32
  0
VERTEX
  5
100001C7
  8
VISIBLE
 10
-0.295935430887117
 20
0.2300895275378393
 30
0.0
 70
    32
  0
VERTEX
  5
100001C8
  8
VISIBLE
 10
-0.3174351599232164
 20
0.2894490414342626
 30
0.0
 70
    32
  0
VERTEX
  5
100001C9
  8
VISIBLE
 10
-0.3368687867230168
 20
0.3645158863537686
 30
0.0
 70
    32
  0
VERTEX
  5
100001CA
  8
VISIBLE
 10
-0.3674934667565564
 20
0.5439933973959802
 30
0.0
 70
    32
  0
VERTEX
  5
100001CB
  8
VISIBLE
 10
-0.3842213553747443
 20
0.7350424801775267
 30
0.0
 70
    32
  0
VERTEX
  5
100001CC
  8
VISIBLE
 10
-0.3852950863281498
 20
1.116130649021713
 30
0.0
 70
    32
  0
VERTEX
  5
100001CD
  8
VISIBLE
 10
-0.3740483629187255
 20
1.5
 30
0.0
 70
    32
  0
SEQEND
  5
100001D0
  8
VISIBLE
  0
POLYLINE
  5
F4417
  8
VISIBLE
 10
0.0
 20
0.0
 30
0.0
 66
     1
 70
     8
  0
VERTEX
  5
100001D1
  8
VISIBLE
 10
0.1394103366348565
 20
1.21583194127233
 30
0.0
 70
    32
  0
VERTEX
  5
100001D2
  8
VISIBLE
 10
0.1502260493505153
 20
1.211030042333672
 30
0.0
 70
    32
  0
VERTEX
  5
100001D3
  8
VISIBLE
 10
0.1586436122269506
 20
1.200847977794075
 30
0.0
 70
    32
  0
VERTEX
  5
100001D4
  8
VISIBLE
 10
0.1774473759328418
 20
1.159077619769676
 30
0.0
 70
    32
  0
VERTEX
  5
100001D5
  8
VISIBLE
 10
0.1956890946036189
 20
1.095408529555053
 30
0.0
 70
    32
  0
VERTEX
  5
100001D6
  8
VISIBLE
 10
0.2132362350903703
 20
1.014728369506129
 30
0.0
 70
    32
  0
VERTEX
  5
100001D7
  8
VISIBLE
 10
0.2457166489161501
 20
0.8218854893290577
 30
0.0
 70
    32
  0
VERTEX
  5
100001D8
  8
VISIBLE
 10
0.27382835221889
 20
0.6196502780858284
 30
0.0
 70
    32
  0
VERTEX
  5
100001D9
  8
VISIBLE
 10
0.302975711527068
 20
0.3848645745407858
 30
0.0
 70
    32
  0
VERTEX
  5
100001DA
  8
VISIBLE
 10
0.3217349166530143
 20
0.185921388550556
 30
0.0
 70
    32
  0
VERTEX
  5
100001DB
  8
VISIBLE
 10
0.3293774185359984
 20
0.0053477768179258
 30
0.0
 70
    32
  0
VERTEX
  5
100001DC
  8
VISIBLE
 10
0.3252226945467045
 20
-0.1743361739563895
 30
0.0
 70
    32
  0
VERTEX
  5
100001DD
  8
VISIBLE
 10
0.308800542008594
 20
-0.3706408930034027
 30
0.0
 70
    32
  0
VERTEX
  5
100001DE
  8
VISIBLE
 10
0.279698315432939
 20
-0.6010851606933809
 30
0.0
 70
    32
  0
VERTEX
  5
100001DF
  8
VISIBLE
 10
0.2496882230099815
 20
-0.8000650269802676
 30
0.0
 70
    32
  0
VERTEX
  5
100001E0
  8
VISIBLE
 10
0.2146728513580442
 20
-0.9909008444055257
 30
0.0
 70
    32
  0
VERTEX
  5
100001E1
  8
VISIBLE
 10
0.1960616779183858
 20
-1.071002200621607
 30
0.0
 70
    32
  0
VERTEX
  5
100001E2
  8
VISIBLE
 10
0.177127382578286
 20
-1.134352373535964
 30
0.0
 70
    32
  0
VERTEX
  5
100001E3
  8
VISIBLE
 10
0.1581793677192585
 20
-1.176046251920577
 30
0.0
 70
    32
  0
VERTEX
  5
100001E4
  8
VISIBLE
 10
0.1476778121184113
 20
-1.188107042826681
 30
0.0
 70
    32
  0
VERTEX
  5
100001E5
  8
VISIBLE
 10
0.139527035722817
 20
-1.191178724547427
 30
0.0
 70
    32
  0
VERTEX
  5
100001E6
  8
VISIBLE
 10
0.1304029378812313
 20
-1.18744855579883
 30
0.0
 70
    32
  0
VERTEX
  5
100001E7
  8
VISIBLE
 10
0.1214349260714247
 20
-1.1764509986069
 30
0.0
 70
    32
  0
VERTEX
  5
100001E8
  8
VISIBLE
 10
0.103984679342741
 20
-1.135112986025616
 30
0.0
 70
    32
  0
VERTEX
  5
100001E9
  8
VISIBLE
 10
0.0872113330696146
 20
-1.072083223157441
 30
0.0
 70
    32
  0
VERTEX
  5
100001EA
  8
VISIBLE
 10
0.0711499247732271
 20
-0.992280246773989
 30
0.0
 70
    32
  0
VERTEX
  5
100001EB
  8
VISIBLE
 10
0.0413030721953954
 20
-0.8020288005477035
 30
0.0
 70
    32
  0
VERTEX
  5
100001EC
  8
VISIBLE
 10
0.0147244751392321
 20
-0.6037028472359347
 30
0.0
 70
    32
  0
VERTEX
  5
100001ED
  8
VISIBLE
 10
-0.014862051431802
 20
-0.3729892371733172
 30
0.0
 70
    32
  0
VERTEX
  5
100001EE
  8
VISIBLE
 10
-0.0359647145946067
 20
-0.1752137629814051
 30
0.0
 70
    32
  0
VERTEX
  5
100001EF
  8
VISIBLE
 10
-0.0464947141596044
 20
0.0056454721067424
 30
0.0
 70
    32
  0
VERTEX
  5
100001F0
  8
VISIBLE
 10
-0.0446865179629252
 20
0.1860796599162079
 30
0.0
 70
    32
  0
VERTEX
  5
100001F1
  8
VISIBLE
 10
-0.0299502798071428
 20
0.3842867605575293
 30
0.0
 70
    32
  0
VERTEX
  5
100001F2
  8
VISIBLE
 10
-0.0019633563338614
 20
0.6188524736095354
 30
0.0
 70
    32
  0
VERTEX
  5
100001F3
  8
VISIBLE
 10
0.0274967893212768
 20
0.821347029019972
 30
0.0
 70
    32
  0
VERTEX
  5
100001F4
  8
VISIBLE
 10
0.0623391486079262
 20
1.01439791646585
 30
0.0
 70
    32
  0
VERTEX
  5
100001F5
  8
VISIBLE
 10
0.0810942699692472
 20
1.095168176405861
 30
0.0
 70
    32
  0
VERTEX
  5
100001F6
  8
VISIBLE
 10
0.1003736786658613
 20
1.15892094939927
 30
0.0
 70
    32
  0
VERTEX
  5
100001F7
  8
VISIBLE
 10
0.1199036193402405
 20
1.200770712127589
 30
0.0
 70
    32
  0
VERTEX
  5
100001F8
  8
VISIBLE
 10
0.130847780008837
 20
1.212818333952016
 30
0.0
 70
    32
  0
VERTEX
  5
100001F9
  8
VISIBLE
 10
0.1394103366348565
 20
1.21583194127233
 30
0.0
 70
    32
  0
SEQEND
  5
100001FC
  8
VISIBLE
  0
POLYLINE
  5
F4418
  8
VISIBLE
 10
0.0
 20
0.0
 30
0.0
 66
     1
 70
     8
  0
VERTEX
  5
100001FD
  8
VISIBLE
 10
0.3894103366348571
 20
1.5
 30
0.0
 70
    32
  0
VERTEX
  5
100001FE
  8
VISIBLE
 10
0.3675876035885299
 20
1.112328306992479
 30
0.0
 70
    32
  0
VERTEX
  5
100001FF
  8
VISIBLE
 10
0.3743193519806922
 20
0.7268250312104173
 30
0.0
 70
    32
  0
VERTEX
  5
10000200
  8
VISIBLE
 10
0.3966122333990384
 20
0.5360896902828651
 30
0.0
 70
    32
  0
VERTEX
  5
10000201
  8
VISIBLE
 10
0.4330347450189043
 20
0.358510185820184
 30
0.0
 70
    32
  0
VERTEX
  5
10000202
  8
VISIBLE
 10
0.4550158841786304
 20
0.284746066885763
 30
0.0
 70
    32
  0
VERTEX
  5
10000203
  8
VISIBLE
 10
0.478572920146645
 20
0.2268561947508107
 30
0.0
 70
    32
  0
VERTEX
  5
10000204
  8
VISIBLE
 10
0.5030028338542685
 20
0.1892334378664686
 30
0.0
 70
    32
  0
VERTEX
  5
10000205
  8
VISIBLE
 10
0.527602606232898
 20
0.1762706646802893
 30
0.0
 70
    32
  0
VERTEX
  5
10000206
  8
VISIBLE
 10
0.5517013395987221
 20
0.1908818876310107
 30
0.0
 70
    32
  0
VERTEX
  5
10000207
  8
VISIBLE
 10
0.5747561041568294
 20
0.230089527537839
 30
0.0
 70
    32
  0
VERTEX
  5
10000208
  8
VISIBLE
 10
0.5962558331929289
 20
0.2894490414342624
 30
0.0
 70
    32
  0
VERTEX
  5
10000209
  8
VISIBLE
 10
0.6156894599927294
 20
0.3645158863537684
 30
0.0
 70
    32
  0
VERTEX
  5
1000020A
  8
VISIBLE
 10
0.6463141400262689
 20
0.5439933973959801
 30
0.0
 70
    32
  0
VERTEX
  5
1000020B
  8
VISIBLE
 10
0.6630420286444569
 20
0.7350424801775265
 30
0.0
 70
    32
  0
VERTEX
  5
1000020C
  8
VISIBLE
 10
0.6641157595978627
 20
1.116130649021713
 30
0.0
 70
    32
  0
VERTEX
  5
1000020D
  8
VISIBLE
 10
0.6528690361884385
 20
1.5
 30
0.0
 70
    32
  0
SEQEND
  5
10000210
  8
VISIBLE
  0
POLYLINE
  5
F4419
  8
VISIBLE
 10
0.0
 20
0.0
 30
0.0
 66
     1
 70
     8
  0
VERTEX
  5
10000211
  8
VISIBLE
 10
1.442047804723512
 20
1.5
 30
0.0
 70
    32
  0
VERTEX
  5
10000212
  8
VISIBLE
 10
1.463870537769839
 20
1.112328306992478
 30
0.0
 70
    32
  0
VERTEX
  5
10000213
  8
VISIBLE
 10
1.457138789377677
 20
0.7268250312104164
 30
0.0
 70
    32
  0
VERTEX
  5
10000214
  8
VISIBLE
 10
1.43484590795933
 20
0.5360896902828645
 30
0.0
 70
    32
  0
VERTEX
  5
10000215
  8
VISIBLE
 10
1.398423396339464
 20
0.3585101858201834
 30
0.0
 70
    32
  0
VERTEX
  5
10000216
  8
VISIBLE
 10
1.376442257179738
 20
0.2847460668857625
 30
0.0
 70
    32
  0
VERTEX
  5
10000217
  8
VISIBLE
 10
1.352885221211723
 20
0.2268561947508102
 30
0.0
 70
    32
  0
VERTEX
  5
10000218
  8
VISIBLE
 10
1.328455307504099
 20
0.1892334378664682
 30
0.0
 70
    32
  0
VERTEX
  5
10000219
  8
VISIBLE
 10
1.30385553512547
 20
0.176270664680289
 30
0.0
 70
    32
  0
VERTEX
  5
1000021A
  8
VISIBLE
 10
1.279756801759646
 20
0.1908818876310103
 30
0.0
 70
    32
  0
VERTEX
  5
1000021B
  8
VISIBLE
 10
1.256702037201539
 20
0.2300895275378388
 30
0.0
 70
    32
  0
VERTEX
  5
1000021C
  8
VISIBLE
 10
1.235202308165439
 20
0.2894490414342621
 30
0.0
 70
    32
  0
VERTEX
  5
1000021D
  8
VISIBLE
 10
1.215768681365639
 20
0.3645158863537681
 30
0.0
 70
    32
  0
VERTEX
  5
1000021E
  8
VISIBLE
 10
1.1851440013321
 20
0.54399339739598
 30
0.0
 70
    32
  0
VERTEX
  5
1000021F
  8
VISIBLE
 10
1.168416112713912
 20
0.7350424801775264
 30
0.0
 70
    32
  0
VERTEX
  5
10000220
  8
VISIBLE
 10
1.167342381760506
 20
1.116130649021713
 30
0.0
 70
    32
  0
VERTEX
  5
10000221
  8
VISIBLE
 10
1.178589105169931
 20
1.5
 30
0.0
 70
    32
  0
SEQEND
  5
10000224
  8
VISIBLE
  0
POLYLINE
  5
F441A
  8
VISIBLE
 10
0.0
 20
0.0
 30
0.0
 66
     1
 70
     8
  0
VERTEX
  5
10000225
  8
VISIBLE
 10
1.44204780472351
 20
-1.500000000000001
 30
0.0
 70
    32
  0
VERTEX
  5
10000226
  8
VISIBLE
 10
1.463870537769838
 20
-1.112328306992479
 30
0.0
 70
    32
  0
VERTEX
  5
10000227
  8
VISIBLE
 10
1.457138789377675
 20
-0.7268250312104181
 30
0.0
 70
    32
  0
VERTEX
  5
10000228
  8
VISIBLE
 10
1.434845907959329
 20
-0.5360896902828659
 30
0.0
 70
    32
  0
VERTEX
  5
10000229
  8
VISIBLE
 10
1.398423396339463
 20
-0.3585101858201848
 30
0.0
 70
    32
  0
VERTEX
  5
1000022A
  8
VISIBLE
 10
1.376442257179737
 20
-0.2847460668857638
 30
0.0
 70
    32
  0
VERTEX
  5
1000022B
  8
VISIBLE
 10
1.352885221211722
 20
-0.2268561947508114
 30
0.0
 70
    32
  0
VERTEX
  5
1000022C
  8
VISIBLE
 10
1.328455307504099
 20
-0.1892334378664694
 30
0.0
 70
    32
  0
VERTEX
  5
1000022D
  8
VISIBLE
 10
1.30385553512547
 20
-0.1762706646802901
 30
0.0
 70
    32
  0
VERTEX
  5
1000022E
  8
VISIBLE
 10
1.279756801759646
 20
-0.1908818876310114
 30
0.0
 70
    32
  0
VERTEX
  5
1000022F
  8
VISIBLE
 10
1.256702037201538
 20
-0.2300895275378398
 30
0.0
 70
    32
  0
VERTEX
  5
10000230
  8
VISIBLE
 10
1.235202308165439
 20
-0.2894490414342631
 30
0.0
 70
    32
  0
VERTEX
  5
10000231
  8
VISIBLE
 10
1.215768681365639
 20
-0.3645158863537692
 30
0.0
 70
    32
  0
VERTEX
  5
10000232
  8
VISIBLE
 10
1.185144001332099
 20
-0.5439933973959807
 30
0.0
 70
    32
  0
VERTEX
  5
10000233
  8
VISIBLE
 10
1.168416112713911
 20
-0.7350424801775273
 30
0.0
 70
    32
  0
VERTEX
  5
10000234
  8
VISIBLE
 10
1.167342381760504
 20
-1.116130649021714
 30
0.0
 70
    32
  0
VERTEX
  5
10000235
  8
VISIBLE
 10
1.178589105169928
 20
-1.500000000000001
 30
0.0
 70
    32
  0
SEQEND
  5
10000238
  8
VISIBLE
  0
POLYLINE
  5
F441B
  8
VISIBLE
 10
0.0
 20
0.0
 30
0.0
 66
     1
 70
     8
  0
VERTEX
  5
10000239
  8
VISIBLE
 10
1.692047804723513
 20
1.21583194127233
 30
0.0
 70
    32
  0
VERTEX
  5
1000023A
  8
VISIBLE
 10
1.702863517439172
 20
1.211030042333671
 30
0.0
 70
    32
  0
VERTEX
  5
1000023B
  8
VISIBLE
 10
1.711281080315607
 20
1.200847977794074
 30
0.0
 70
    32
  0
VERTEX
  5
1000023C
  8
VISIBLE
 10
1.730084844021498
 20
1.159077619769675
 30
0.0
 70
    32
  0
VERTEX
  5
1000023D
  8
VISIBLE
 10
1.748326562692275
 20
1.095408529555053
 30
0.0
 70
    32
  0
VERTEX
  5
1000023E
  8
VISIBLE
 10
1.765873703179027
 20
1.014728369506128
 30
0.0
 70
    32
  0
VERTEX
  5
1000023F
  8
VISIBLE
 10
1.798354117004806
 20
0.8218854893290568
 30
0.0
 70
    32
  0
VERTEX
  5
10000240
  8
VISIBLE
 10
1.826465820307546
 20
0.6196502780858274
 30
0.0
 70
    32
  0
VERTEX
  5
10000241
  8
VISIBLE
 10
1.855613179615724
 20
0.3848645745407849
 30
0.0
 70
    32
  0
VERTEX
  5
10000242
  8
VISIBLE
 10
1.87437238474167
 20
0.185921388550555
 30
0.0
 70
    32
  0
VERTEX
  5
10000243
  8
VISIBLE
 10
1.882014886624655
 20
0.0053477768179248
 30
0.0
 70
    32
  0
VERTEX
  5
10000244
  8
VISIBLE
 10
1.87786016263536
 20
-0.1743361739563905
 30
0.0
 70
    32
  0
VERTEX
  5
10000245
  8
VISIBLE
 10
1.861438010097249
 20
-0.3706408930034039
 30
0.0
 70
    32
  0
VERTEX
  5
10000246
  8
VISIBLE
 10
1.832335783521594
 20
-0.6010851606933822
 30
0.0
 70
    32
  0
VERTEX
  5
10000247
  8
VISIBLE
 10
1.802325691098637
 20
-0.8000650269802689
 30
0.0
 70
    32
  0
VERTEX
  5
10000248
  8
VISIBLE
 10
1.7673103194467
 20
-0.9909008444055265
 30
0.0
 70
    32
  0
VERTEX
  5
10000249
  8
VISIBLE
 10
1.748699146007041
 20
-1.071002200621608
 30
0.0
 70
    32
  0
VERTEX
  5
1000024A
  8
VISIBLE
 10
1.729764850666942
 20
-1.134352373535965
 30
0.0
 70
    32
  0
VERTEX
  5
1000024B
  8
VISIBLE
 10
1.710816835807914
 20
-1.176046251920577
 30
0.0
 70
    32
  0
VERTEX
  5
1000024C
  8
VISIBLE
 10
1.700315280207067
 20
-1.188107042826682
 30
0.0
 70
    32
  0
VERTEX
  5
1000024D
  8
VISIBLE
 10
1.692164503811472
 20
-1.191178724547427
 30
0.0
 70
    32
  0
VERTEX
  5
1000024E
  8
VISIBLE
 10
1.683040405969887
 20
-1.18744855579883
 30
0.0
 70
    32
  0
VERTEX
  5
1000024F
  8
VISIBLE
 10
1.67407239416008
 20
-1.176450998606901
 30
0.0
 70
    32
  0
VERTEX
  5
10000250
  8
VISIBLE
 10
1.656622147431396
 20
-1.135112986025616
 30
0.0
 70
    32
  0
VERTEX
  5
10000251
  8
VISIBLE
 10
1.63984880115827
 20
-1.072083223157441
 30
0.0
 70
    32
  0
VERTEX
  5
10000252
  8
VISIBLE
 10
1.623787392861882
 20
-0.9922802467739888
 30
0.0
 70
    32
  0
VERTEX
  5
10000253
  8
VISIBLE
 10
1.593940540284051
 20
-0.8020288005477033
 30
0.0
 70
    32
  0
VERTEX
  5
10000254
  8
VISIBLE
 10
1.567361943227887
 20
-0.6037028472359345
 30
0.0
 70
    32
  0
VERTEX
  5
10000255
  8
VISIBLE
 10
1.537775416656853
 20
-0.3729892371733172
 30
0.0
 70
    32
  0
VERTEX
  5
10000256
  8
VISIBLE
 10
1.516672753494049
 20
-0.1752137629814055
 30
0.0
 70
    32
  0
VERTEX
  5
10000257
  8
VISIBLE
 10
1.506142753929052
 20
0.0056454721067418
 30
0.0
 70
    32
  0
VERTEX
  5
10000258
  8
VISIBLE
 10
1.507950950125731
 20
0.1860796599162071
 30
0.0
 70
    32
  0
VERTEX
  5
10000259
  8
VISIBLE
 10
1.522687188281513
 20
0.3842867605575285
 30
0.0
 70
    32
  0
VERTEX
  5
1000025A
  8
VISIBLE
 10
1.550674111754795
 20
0.6188524736095349
 30
0.0
 70
    32
  0
VERTEX
  5
1000025B
  8
VISIBLE
 10
1.580134257409933
 20
0.8213470290199714
 30
0.0
 70
    32
  0
VERTEX
  5
1000025C
  8
VISIBLE
 10
1.614976616696583
 20
1.01439791646585
 30
0.0
 70
    32
  0
VERTEX
  5
1000025D
  8
VISIBLE
 10
1.633731738057904
 20
1.095168176405861
 30
0.0
 70
    32
  0
VERTEX
  5
1000025E
  8
VISIBLE
 10
1.653011146754518
 20
1.158920949399269
 30
0.0
 70
    32
  0
VERTEX
  5
1000025F
  8
VISIBLE
 10
1.672541087428897
 20
1.200770712127588
 30
0.0
 70
    32
  0
VERTEX
  5
10000260
  8
VISIBLE
 10
1.683485248097494
 20
1.212818333952016
 30
0.0
 70
    32
  0
VERTEX
  5
10000261
  8
VISIBLE
 10
1.692047804723513
 20
1.21583194127233
 30
0.0
 70
    32
  0
SEQEND
  5
10000264
  8
VISIBLE
  0
POLYLINE
  5
F441C
  8
VISIBLE
 10
0.0
 20
0.0
 30
0.0
 66
     1
 70
     8
  0
VERTEX
  5
10000265
  8
VISIBLE
 10
1.942047804723514
 20
1.499999999999999
 30
0.0
 70
    32
  0
VERTEX
  5
10000266
  8
VISIBLE
 10
1.920225071677187
 20
1.112328306992478
 30
0.0
 70
    32
  0
VERTEX
  5
10000267
  8
VISIBLE
 10
1.926956820069348
 20
0.7268250312104163
 30
0.0
 70
    32
  0
VERTEX
  5
10000268
  8
VISIBLE
 10
1.949249701487694
 20
0.5360896902828641
 30
0.0
 70
    32
  0
VERTEX
  5
10000269
  8
VISIBLE
 10
1.985672213107561
 20
0.358510185820183
 30
0.0
 70
    32
  0
VERTEX
  5
1000026A
  8
VISIBLE
 10
2.007653352267287
 20
0.284746066885762
 30
0.0
 70
    32
  0
VERTEX
  5
1000026B
  8
VISIBLE
 10
2.031210388235301
 20
0.2268561947508097
 30
0.0
 70
    32
  0
VERTEX
  5
1000026C
  8
VISIBLE
 10
2.055640301942924
 20
0.1892334378664676
 30
0.0
 70
    32
  0
VERTEX
  5
1000026D
  8
VISIBLE
 10
2.080240074321554
 20
0.1762706646802883
 30
0.0
 70
    32
  0
VERTEX
  5
1000026E
  8
VISIBLE
 10
2.104338807687378
 20
0.1908818876310097
 30
0.0
 70
    32
  0
VERTEX
  5
1000026F
  8
VISIBLE
 10
2.127393572245485
 20
0.2300895275378381
 30
0.0
 70
    32
  0
VERTEX
  5
10000270
  8
VISIBLE
 10
2.148893301281585
 20
0.2894490414342614
 30
0.0
 70
    32
  0
VERTEX
  5
10000271
  8
VISIBLE
 10
2.168326928081385
 20
0.3645158863537675
 30
0.0
 70
    32
  0
VERTEX
  5
10000272
  8
VISIBLE
 10
2.198951608114925
 20
0.5439933973959792
 30
0.0
 70
    32
  0
VERTEX
  5
10000273
  8
VISIBLE
 10
2.215679496733113
 20
0.7350424801775256
 30
0.0
 70
    32
  0
VERTEX
  5
10000274
  8
VISIBLE
 10
2.216753227686519
 20
1.116130649021712
 30
0.0
 70
    32
  0
VERTEX
  5
10000275
  8
VISIBLE
 10
2.205506504277095
 20
1.499999999999999
 30
0.0
 70
    32
  0
SEQEND
  5
10000278
  8
VISIBLE
  0
POLYLINE
  5
F441D
  8
VISIBLE
 10
0.0
 20
0.0
 30
0.0
 66
     1
 70
     8
  0
VERTEX
  5
10000279
  8
VISIBLE
 10
1.942047804723511
 20
-1.500000000000001
 30
0.0
 70
    32
  0
VERTEX
  5
1000027A
  8
VISIBLE
 10
1.920225071677184
 20
-1.112328306992479
 30
0.0
 70
    32
  0
VERTEX
  5
1000027B
  8
VISIBLE
 10
1.926956820069347
 20
-0.7268250312104181
 30
0.0
 70
    32
  0
VERTEX
  5
1000027C
  8
VISIBLE
 10
1.949249701487694
 20
-0.5360896902828661
 30
0.0
 70
    32
  0
VERTEX
  5
1000027D
  8
VISIBLE
 10
1.98567221310756
 20
-0.3585101858201851
 30
0.0
 70
    32
  0
VERTEX
  5
1000027E
  8
VISIBLE
 10
2.007653352267286
 20
-0.2847460668857641
 30
0.0
 70
    32
  0
VERTEX
  5
1000027F
  8
VISIBLE
 10
2.031210388235301
 20
-0.2268561947508118
 30
0.0
 70
    32
  0
VERTEX
  5
10000280
  8
VISIBLE
 10
2.055640301942924
 20
-0.1892334378664697
 30
0.0
 70
    32
  0
VERTEX
  5
10000281
  8
VISIBLE
 10
2.080240074321554
 20
-0.1762706646802904
 30
0.0
 70
    32
  0
VERTEX
  5
10000282
  8
VISIBLE
 10
2.104338807687378
 20
-0.1908818876310117
 30
0.0
 70
    32
  0
VERTEX
  5
10000283
  8
VISIBLE
 10
2.127393572245485
 20
-0.23008952753784
 30
0.0
 70
    32
  0
VERTEX
  5
10000284
  8
VISIBLE
 10
2.148893301281584
 20
-0.2894490414342633
 30
0.0
 70
    32
  0
VERTEX
  5
10000285
  8
VISIBLE
 10
2.168326928081384
 20
-0.3645158863537692
 30
0.0
 70
    32
  0
VERTEX
  5
10000286
  8
VISIBLE
 10
2.198951608114924
 20
-0.5439933973959808
 30
0.0
 70
    32
  0
VERTEX
  5
10000287
  8
VISIBLE
 10
2.215679496733112
 20
-0.7350424801775274
 30
0.0
 70
    32
  0
VERTEX
  5
10000288
  8
VISIBLE
 10
2.216753227686519
 20
-1.116130649021714
 30
0.0
 70
    32
  0
VERTEX
  5
10000289
  8
VISIBLE
 10
2.205506504277094
 20
-1.500000000000001
 30
0.0
 70
    32
  0
SEQEND
  5
1000028C
  8
VISIBLE
  0
POLYLINE
  5
F441E
  8
VISIBLE
 10
0.0
 20
0.0
 30
0.0
 66
     1
 70
     8
  0
VERTEX
  5
1000028D
  8
VISIBLE
 10
2.468366538767842
 20
1.215831941272329
 30
0.0
 70
    32
  0
VERTEX
  5
1000028E
  8
VISIBLE
 10
2.457550826052183
 20
1.21103004233367
 30
0.0
 70
    32
  0
VERTEX
  5
1000028F
  8
VISIBLE
 10
2.449133263175747
 20
1.200847977794074
 30
0.0
 70
    32
  0
VERTEX
  5
10000290
  8
VISIBLE
 10
2.430329499469856
 20
1.159077619769674
 30
0.0
 70
    32
  0
VERTEX
  5
10000291
  8
VISIBLE
 10
2.412087780799079
 20
1.095408529555052
 30
0.0
 70
    32
  0
VERTEX
  5
10000292
  8
VISIBLE
 10
2.394540640312327
 20
1.014728369506128
 30
0.0
 70
    32
  0
VERTEX
  5
10000293
  8
VISIBLE
 10
2.362060226486547
 20
0.8218854893290565
 30
0.0
 70
    32
  0
VERTEX
  5
10000294
  8
VISIBLE
 10
2.333948523183807
 20
0.6196502780858271
 30
0.0
 70
    32
  0
VERTEX
  5
10000295
  8
VISIBLE
 10
2.304801163875628
 20
0.3848645745407845
 30
0.0
 70
    32
  0
VERTEX
  5
10000296
  8
VISIBLE
 10
2.286041958749681
 20
0.1859213885505547
 30
0.0
 70
    32
  0
VERTEX
  5
10000297
  8
VISIBLE
 10
2.278399456866697
 20
0.0053477768179245
 30
0.0
 70
    32
  0
VERTEX
  5
10000298
  8
VISIBLE
 10
2.28255418085599
 20
-0.1743361739563908
 30
0.0
 70
    32
  0
VERTEX
  5
10000299
  8
VISIBLE
 10
2.2989763333941
 20
-0.3706408930034042
 30
0.0
 70
    32
  0
VERTEX
  5
1000029A
  8
VISIBLE
 10
2.328078559969756
 20
-0.6010851606933827
 30
0.0
 70
    32
  0
VERTEX
  5
1000029B
  8
VISIBLE
 10
2.358088652392713
 20
-0.8000650269802694
 30
0.0
 70
    32
  0
VERTEX
  5
1000029C
  8
VISIBLE
 10
2.39310402404465
 20
-0.9909008444055273
 30
0.0
 70
    32
  0
VERTEX
  5
1000029D
  8
VISIBLE
 10
2.411715197484309
 20
-1.071002200621608
 30
0.0
 70
    32
  0
VERTEX
  5
1000029E
  8
VISIBLE
 10
2.430649492824409
 20
-1.134352373535966
 30
0.0
 70
    32
  0
VERTEX
  5
1000029F
  8
VISIBLE
 10
2.449597507683436
 20
-1.176046251920578
 30
0.0
 70
    32
  0
VERTEX
  5
100002A0
  8
VISIBLE
 10
2.460099063284284
 20
-1.188107042826683
 30
0.0
 70
    32
  0
VERTEX
  5
100002A1
  8
VISIBLE
 10
2.468249839679877
 20
-1.191178724547428
 30
0.0
 70
    32
  0
VERTEX
  5
100002A2
  8
VISIBLE
 10
2.477373937521463
 20
-1.187448555798831
 30
0.0
 70
    32
  0
VERTEX
  5
100002A3
  8
VISIBLE
 10
2.48634194933127
 20
-1.176450998606902
 30
0.0
 70
    32
  0
VERTEX
  5
100002A4
  8
VISIBLE
 10
2.503792196059954
 20
-1.135112986025617
 30
0.0
 70
    32
  0
VERTEX
  5
100002A5
  8
VISIBLE
 10
2.52056554233308
 20
-1.072083223157442
 30
0.0
 70
    32
  0
VERTEX
  5
100002A6
  8
VISIBLE
 10
2.536626950629468
 20
-0.9922802467739897
 30
0.0
 70
    32
  0
VERTEX
  5
100002A7
  8
VISIBLE
 10
2.566473803207299
 20
-0.8020288005477045
 30
0.0
 70
    32
  0
VERTEX
  5
100002A8
  8
VISIBLE
 10
2.593052400263462
 20
-0.6037028472359356
 30
0.0
 70
    32
  0
VERTEX
  5
100002A9
  8
VISIBLE
 10
2.622638926834497
 20
-0.3729892371733182
 30
0.0
 70
    32
  0
VERTEX
  5
100002AA
  8
VISIBLE
 10
2.643741589997301
 20
-0.1752137629814066
 30
0.0
 70
    32
  0
VERTEX
  5
100002AB
  8
VISIBLE
 10
2.654271589562299
 20
0.0056454721067407
 30
0.0
 70
    32
  0
VERTEX
  5
100002AC
  8
VISIBLE
 10
2.652463393365621
 20
0.186079659916206
 30
0.0
 70
    32
  0
VERTEX
  5
100002AD
  8
VISIBLE
 10
2.637727155209839
 20
0.3842867605575273
 30
0.0
 70
    32
  0
VERTEX
  5
100002AE
  8
VISIBLE
 10
2.609740231736558
 20
0.6188524736095337
 30
0.0
 70
    32
  0
VERTEX
  5
100002AF
  8
VISIBLE
 10
2.58028008608142
 20
0.8213470290199703
 30
0.0
 70
    32
  0
VERTEX
  5
100002B0
  8
VISIBLE
 10
2.545437726794772
 20
1.014397916465849
 30
0.0
 70
    32
  0
VERTEX
  5
100002B1
  8
VISIBLE
 10
2.526682605433451
 20
1.095168176405859
 30
0.0
 70
    32
  0
VERTEX
  5
100002B2
  8
VISIBLE
 10
2.507403196736837
 20
1.158920949399268
 30
0.0
 70
    32
  0
VERTEX
  5
100002B3
  8
VISIBLE
 10
2.487873256062457
 20
1.200770712127587
 30
0.0
 70
    32
  0
VERTEX
  5
100002B4
  8
VISIBLE
 10
2.476929095393861
 20
1.212818333952015
 30
0.0
 70
    32
  0
VERTEX
  5
100002B5
  8
VISIBLE
 10
2.468366538767842
 20
1.215831941272328
 30
0.0
 70
    32
  0
SEQEND
  5
100002B8
  8
VISIBLE
  0
POLYLINE
  5
F441F
  8
VISIBLE
 10
0.0
 20
0.0
 30
0.0
 66
     1
 70
     8
  0
VERTEX
  5
100002B9
  8
VISIBLE
 10
3.494685272812169
 20
1.499999999999997
 30
0.0
 70
    32
  0
VERTEX
  5
100002BA
  8
VISIBLE
 10
3.472862539765841
 20
1.112328306992476
 30
0.0
 70
    32
  0
VERTEX
  5
100002BB
  8
VISIBLE
 10
3.479594288158005
 20
0.7268250312104143
 30
0.0
 70
    32
  0
VERTEX
  5
100002BC
  8
VISIBLE
 10
3.501887169576351
 20
0.5360896902828619
 30
0.0
 70
    32
  0
VERTEX
  5
100002BD
  8
VISIBLE
 10
3.538309681196218
 20
0.358510185820181
 30
0.0
 70
    32
  0
VERTEX
  5
100002BE
  8
VISIBLE
 10
3.560290820355942
 20
0.28474606688576
 30
0.0
 70
    32
  0
VERTEX
  5
100002BF
  8
VISIBLE
 10
3.583847856323958
 20
0.2268561947508076
 30
0.0
 70
    32
  0
VERTEX
  5
100002C0
  8
VISIBLE
 10
3.608277770031581
 20
0.1892334378664656
 30
0.0
 70
    32
  0
VERTEX
  5
100002C1
  8
VISIBLE
 10
3.63287754241021
 20
0.1762706646802862
 30
0.0
 70
    32
  0
VERTEX
  5
100002C2
  8
VISIBLE
 10
3.656976275776034
 20
0.1908818876310074
 30
0.0
 70
    32
  0
VERTEX
  5
100002C3
  8
VISIBLE
 10
3.680031040334141
 20
0.2300895275378357
 30
0.0
 70
    32
  0
VERTEX
  5
100002C4
  8
VISIBLE
 10
3.701530769370241
 20
0.289449041434259
 30
0.0
 70
    32
  0
VERTEX
  5
100002C5
  8
VISIBLE
 10
3.720964396170041
 20
0.3645158863537649
 30
0.0
 70
    32
  0
VERTEX
  5
100002C6
  8
VISIBLE
 10
3.751589076203581
 20
0.5439933973959763
 30
0.0
 70
    32
  0
VERTEX
  5
100002C7
  8
VISIBLE
 10
3.76831696482177
 20
0.7350424801775227
 30
0.0
 70
    32
  0
VERTEX
  5
100002C8
  8
VISIBLE
 10
3.769390695775176
 20
1.116130649021709
 30
0.0
 70
    32
  0
VERTEX
  5
100002C9
  8
VISIBLE
 10
3.758143972365752
 20
1.499999999999997
 30
0.0
 70
    32
  0
SEQEND
  5
100002CC
  8
VISIBLE
  0
LINE
  5
F4420
  8
VISIBLE
 10
2.731226573258585
 20
-1.500000000000002
 30
0.0
 11
2.205506504277094
 21
-1.500000000000001
 31
0.0
  0
POLYLINE
  5
F4421
  8
VISIBLE
 10
0.0
 20
0.0
 30
0.0
 66
     1
 70
     8
  0
VERTEX
  5
100002CF
  8
VISIBLE
 10
3.494685272812167
 20
-1.500000000000003
 30
0.0
 70
    32
  0
VERTEX
  5
100002D0
  8
VISIBLE
 10
3.472862539765841
 20
-1.112328306992482
 30
0.0
 70
    32
  0
VERTEX
  5
100002D1
  8
VISIBLE
 10
3.479594288158003
 20
-0.7268250312104204
 30
0.0
 70
    32
  0
VERTEX
  5
100002D2
  8
VISIBLE
 10
3.50188716957635
 20
-0.5360896902828685
 30
0.0
 70
    32
  0
VERTEX
  5
100002D3
  8
VISIBLE
 10
3.538309681196216
 20
-0.3585101858201873
 30
0.0
 70
    32
  0
VERTEX
  5
100002D4
  8
VISIBLE
 10
3.560290820355942
 20
-0.2847460668857664
 30
0.0
 70
    32
  0
VERTEX
  5
100002D5
  8
VISIBLE
 10
3.583847856323957
 20
-0.2268561947508141
 30
0.0
 70
    32
  0
VERTEX
  5
100002D6
  8
VISIBLE
 10
3.60827777003158
 20
-0.1892334378664721
 30
0.0
 70
    32
  0
VERTEX
  5
100002D7
  8
VISIBLE
 10
3.632877542410209
 20
-0.1762706646802927
 30
0.0
 70
    32
  0
VERTEX
  5
100002D8
  8
VISIBLE
 10
3.656976275776033
 20
-0.190881887631014
 30
0.0
 70
    32
  0
VERTEX
  5
100002D9
  8
VISIBLE
 10
3.680031040334141
 20
-0.2300895275378424
 30
0.0
 70
    32
  0
VERTEX
  5
100002DA
  8
VISIBLE
 10
3.70153076937024
 20
-0.2894490414342658
 30
0.0
 70
    32
  0
VERTEX
  5
100002DB
  8
VISIBLE
 10
3.72096439617004
 20
-0.3645158863537717
 30
0.0
 70
    32
  0
VERTEX
  5
100002DC
  8
VISIBLE
 10
3.75158907620358
 20
-0.5439933973959835
 30
0.0
 70
    32
  0
VERTEX
  5
100002DD
  8
VISIBLE
 10
3.768316964821768
 20
-0.7350424801775299
 30
0.0
 70
    32
  0
VERTEX
  5
100002DE
  8
VISIBLE
 10
3.769390695775174
 20
-1.116130649021716
 30
0.0
 70
    32
  0
VERTEX
  5
100002DF
  8
VISIBLE
 10
3.758143972365749
 20
-1.500000000000004
 30
0.0
 70
    32
  0
SEQEND
  5
100002E2
  8
VISIBLE
  0
POLYLINE
  5
F4422
  8
VISIBLE
 10
0.0
 20
0.0
 30
0.0
 66
     1
 70
     8
  0
VERTEX
  5
100002E3
  8
VISIBLE
 10
4.021004006856498
 20
1.215831941272327
 30
0.0
 70
    32
  0
VERTEX
  5
100002E4
  8
VISIBLE
 10
4.010188294140839
 20
1.211030042333669
 30
0.0
 70
    32
  0
VERTEX
  5
100002E5
  8
VISIBLE
 10
4.001770731264403
 20
1.200847977794072
 30
0.0
 70
    32
  0
VERTEX
  5
100002E6
  8
VISIBLE
 10
3.982966967558512
 20
1.159077619769673
 30
0.0
 70
    32
  0
VERTEX
  5
100002E7
  8
VISIBLE
 10
3.964725248887735
 20
1.09540852955505
 30
0.0
 70
    32
  0
VERTEX
  5
100002E8
  8
VISIBLE
 10
3.947178108400984
 20
1.014728369506126
 30
0.0
 70
    32
  0
VERTEX
  5
100002E9
  8
VISIBLE
 10
3.914697694575203
 20
0.8218854893290547
 30
0.0
 70
    32
  0
VERTEX
  5
100002EA
  8
VISIBLE
 10
3.886585991272463
 20
0.6196502780858254
 30
0.0
 70
    32
  0
VERTEX
  5
100002EB
  8
VISIBLE
 10
3.857438631964284
 20
0.3848645745407827
 30
0.0
 70
    32
  0
VERTEX
  5
100002EC
  8
VISIBLE
 10
3.838679426838337
 20
0.1859213885505532
 30
0.0
 70
    32
  0
VERTEX
  5
100002ED
  8
VISIBLE
 10
3.831036924955353
 20
0.0053477768179231
 30
0.0
 70
    32
  0
VERTEX
  5
100002EE
  8
VISIBLE
 10
3.835191648944645
 20
-0.1743361739563921
 30
0.0
 70
    32
  0
VERTEX
  5
100002EF
  8
VISIBLE
 10
3.851613801482755
 20
-0.3706408930034054
 30
0.0
 70
    32
  0
VERTEX
  5
100002F0
  8
VISIBLE
 10
3.88071602805841
 20
-0.6010851606933836
 30
0.0
 70
    32
  0
VERTEX
  5
100002F1
  8
VISIBLE
 10
3.910726120481367
 20
-0.8000650269802702
 30
0.0
 70
    32
  0
VERTEX
  5
100002F2
  8
VISIBLE
 10
3.945741492133305
 20
-0.9909008444055282
 30
0.0
 70
    32
  0
VERTEX
  5
100002F3
  8
VISIBLE
 10
3.964352665572962
 20
-1.07100220062161
 30
0.0
 70
    32
  0
VERTEX
  5
100002F4
  8
VISIBLE
 10
3.983286960913063
 20
-1.134352373535967
 30
0.0
 70
    32
  0
VERTEX
  5
100002F5
  8
VISIBLE
 10
4.00223497577209
 20
-1.17604625192058
 30
0.0
 70
    32
  0
VERTEX
  5
100002F6
  8
VISIBLE
 10
4.012736531372939
 20
-1.188107042826685
 30
0.0
 70
    32
  0
VERTEX
  5
100002F7
  8
VISIBLE
 10
4.020887307768533
 20
-1.19117872454743
 30
0.0
 70
    32
  0
VERTEX
  5
100002F8
  8
VISIBLE
 10
4.030011405610118
 20
-1.187448555798834
 30
0.0
 70
    32
  0
VERTEX
  5
100002F9
  8
VISIBLE
 10
4.038979417419926
 20
-1.176450998606904
 30
0.0
 70
    32
  0
VERTEX
  5
100002FA
  8
VISIBLE
 10
4.056429664148609
 20
-1.135112986025619
 30
0.0
 70
    32
  0
VERTEX
  5
100002FB
  8
VISIBLE
 10
4.073203010421736
 20
-1.072083223157445
 30
0.0
 70
    32
  0
VERTEX
  5
100002FC
  8
VISIBLE
 10
4.089264418718123
 20
-0.9922802467739927
 30
0.0
 70
    32
  0
VERTEX
  5
100002FD
  8
VISIBLE
 10
4.119111271295955
 20
-0.8020288005477076
 30
0.0
 70
    32
  0
VERTEX
  5
100002FE
  8
VISIBLE
 10
4.145689868352118
 20
-0.6037028472359388
 30
0.0
 70
    32
  0
VERTEX
  5
100002FF
  8
VISIBLE
 10
4.175276394923153
 20
-0.3729892371733212
 30
0.0
 70
    32
  0
VERTEX
  5
10000300
  8
VISIBLE
 10
4.196379058085958
 20
-0.1752137629814093
 30
0.0
 70
    32
  0
VERTEX
  5
10000301
  8
VISIBLE
 10
4.206909057650956
 20
0.0056454721067382
 30
0.0
 70
    32
  0
VERTEX
  5
10000302
  8
VISIBLE
 10
4.205100861454276
 20
0.1860796599162035
 30
0.0
 70
    32
  0
VERTEX
  5
10000303
  8
VISIBLE
 10
4.190364623298493
 20
0.3842867605575248
 30
0.0
 70
    32
  0
VERTEX
  5
10000304
  8
VISIBLE
 10
4.162377699825213
 20
0.6188524736095312
 30
0.0
 70
    32
  0
VERTEX
  5
10000305
  8
VISIBLE
 10
4.132917554170076
 20
0.8213470290199679
 30
0.0
 70
    32
  0
VERTEX
  5
10000306
  8
VISIBLE
 10
4.098075194883428
 20
1.014397916465846
 30
0.0
 70
    32
  0
VERTEX
  5
10000307
  8
VISIBLE
 10
4.079320073522107
 20
1.095168176405857
 30
0.0
 70
    32
  0
VERTEX
  5
10000308
  8
VISIBLE
 10
4.060040664825493
 20
1.158920949399266
 30
0.0
 70
    32
  0
VERTEX
  5
10000309
  8
VISIBLE
 10
4.040510724151113
 20
1.200770712127585
 30
0.0
 70
    32
  0
VERTEX
  5
1000030A
  8
VISIBLE
 10
4.029566563482517
 20
1.212818333952013
 30
0.0
 70
    32
  0
VERTEX
  5
1000030B
  8
VISIBLE
 10
4.021004006856498
 20
1.215831941272327
 30
0.0
 70
    32
  0
SEQEND
  5
1000030E
  8
VISIBLE
  0
LINE
  5
F4423
  8
VISIBLE
 10
3.758143972365752
 20
1.499999999999997
 30
0.0
 11
4.400004904101209
 21
1.499999999999997
 31
0.0
  0
LINE
  5
F4424
  8
VISIBLE
 10
4.400004904101209
 20
1.499999999999997
 30
0.0
 11
4.400004904101209
 21
-1.500000000000004
 31
0.0
  0
LINE
  5
F4425
  8
VISIBLE
 10
1.178589105169928
 20
-1.500000000000001
 30
0.0
 11
0.6528690361884384
 21
-1.5
 31
0.0
  0
LINE
  5
F4426
  8
VISIBLE
 10
0.6528690361884385
 20
1.5
 30
0.0
 11
1.178589105169931
 21
1.5
 31
0.0
  0
LINE
  5
F4427
  8
VISIBLE
 10
2.205506504277095
 20
1.499999999999999
 30
0.0
 11
2.731226573258587
 21
1.499999999999998
 31
0.0
  0
ENDSEC
  0
EOF
